<?xml version="1.0" encoding="utf-8"?>
<svg enable-background="new 0 0 1024 1024" id="Layer_1" version="1.1" viewBox="0 0 1024 1024" width="100%" x="0px" xml:space="preserve" xmlns="http://www.w3.org/2000/svg" xmlns:xlink="http://www.w3.org/1999/xlink" y="0px">
<path d=" M1.000000,573.000000   C1.000000,532.979126 1.000000,492.958221 1.061641,452.081482   C1.939316,445.808472 2.795310,440.396912 3.565234,434.973145   C11.792296,377.017548 29.604839,322.121857 57.244011,270.578125   C100.692543,189.551804 161.268280,124.313400 239.284103,75.457268   C289.900879,43.759357 344.490692,21.831118 402.815460,9.081804   C418.103577,5.739948 433.635101,3.862473 449.000000,1.000000   C490.354218,1.000000 531.708435,1.000000 573.892700,1.147989   C582.124084,2.378808 589.530029,3.431777 596.926208,4.549325   C644.848938,11.790354 690.671631,26.112541 734.328674,46.924492   C808.993103,82.518143 871.705017,133.105331 922.207397,198.758194   C971.106873,262.327393 1002.933105,333.543213 1018.496460,412.130707   C1021.307495,426.324921 1022.823425,440.711670 1025.000000,455.000000   C1025.000000,493.020905 1025.000000,531.041809 1024.925659,569.919983   C1024.312012,575.559265 1023.878784,580.356079 1023.216248,585.120911   C1018.924011,615.993408 1012.192871,646.305908 1002.385925,675.919983   C973.616882,762.794373 924.886108,836.748047 856.824646,897.622253   C784.489624,962.318726 700.170044,1003.148499 604.539246,1020.280334   C594.079956,1022.154053 583.515625,1023.440918 573.000000,1025.000000   C532.645752,1025.000000 492.291534,1025.000000 451.117737,1024.827148   C448.331299,1024.307007 446.376953,1023.842896 444.395599,1023.630249   C419.337463,1020.941467 394.781738,1015.636353 370.615967,1008.692139   C266.964325,978.907288 181.023422,922.019043 112.760971,838.653748   C60.080322,774.317627 25.804064,701.030212 8.320519,619.806030   C4.991212,604.338928 3.365885,588.613403 1.000000,573.000000  M291.541565,958.853394   C296.063904,960.976074 300.571533,963.130676 305.110779,965.216553   C367.252808,993.771301 432.657776,1008.386292 500.879547,1010.541443   C530.748108,1011.484924 560.469727,1009.046448 589.979004,1004.431335   C649.329712,995.149109 705.495728,976.249084 757.579895,946.311157   C857.316711,888.982483 929.871826,807.418579 973.937073,700.863586   C996.453918,646.415039 1007.545166,589.485352 1010.457581,530.874084   C1011.590637,508.071960 1010.184814,485.279114 1007.866394,462.537445   C1003.845581,423.095428 995.566650,384.599792 982.346252,347.250244   C951.473877,260.031403 900.631409,186.508377 828.631409,128.372086   C729.442749,48.282314 615.841431,10.693837 488.251556,16.180603   C447.950989,17.913654 408.419922,24.531342 369.876953,36.316906   C264.890137,68.419495 178.871933,128.010635 113.233063,216.123138   C51.188457,299.410797 19.417530,393.576569 15.472042,497.167725   C14.118378,532.708984 16.941614,568.031616 23.421516,603.045044   C34.853172,664.814758 56.625240,722.638977 90.042587,775.864441   C139.966873,855.381287 206.932175,916.325928 291.541565,958.853394  z" fill="#d9bf77" opacity="1.000000" stroke="none"/>
<path d=" M443.478577,878.792297   C316.578461,851.841614 226.315170,779.383911 171.856506,662.408752   C154.052185,624.165833 144.518707,583.579712 141.538269,541.463135   C135.313080,453.495026 156.403931,372.633514 207.149033,300.560120   C265.275116,218.003464 344.549194,166.740250 443.797974,146.972000   C473.350800,141.085678 503.313568,139.102371 533.317444,141.009598   C614.726135,146.184433 687.477844,173.964188 750.433167,226.294128   C815.620972,280.479767 858.438171,348.975159 876.207764,431.674133   C901.523499,549.492676 876.042969,656.471741 799.723022,749.859375   C741.621521,820.954407 665.997681,863.841003 575.552612,880.044312   C533.014404,887.664978 490.379517,887.373962 447.838928,879.525940   C446.529358,879.284363 445.207855,879.107422 443.478577,878.792297  M655.283386,185.301254   C604.439941,163.482178 551.492432,153.400818 496.102936,156.129898   C455.282410,158.141144 415.950470,166.616577 378.142120,182.034531   C339.036133,197.981583 303.937042,220.342087 272.619415,248.675247   C231.628448,285.759888 200.959091,330.061737 180.475769,381.319733   C160.969498,430.132751 152.983170,480.852325 156.053131,533.397400   C157.820312,563.644287 162.738037,593.274658 172.309875,621.980347   C202.003281,711.030273 257.704376,779.098511 339.465637,825.083008   C409.647736,864.555115 485.265961,877.648926 564.827332,866.339233   C620.999451,858.354370 672.250671,837.444397 718.794434,804.781616   C833.208740,724.489563 891.761719,583.222473 864.084045,446.579010   C839.406921,324.749268 768.734131,238.005325 655.283386,185.301254  z" fill="#d9bf77" opacity="1.000000" stroke="none"/>
<path d=" M108.622818,519.773315   C110.936142,525.238586 110.811226,530.666931 110.191605,535.900818   C109.436516,542.278931 110.067665,548.491699 110.877357,554.734192   C111.203133,557.245789 110.543861,558.947144 108.276329,560.041260   C105.578690,561.342896 102.992096,562.965637 100.176704,563.911255   C95.852264,565.363831 94.569824,568.217468 95.389359,572.376404   C97.715836,584.182800 93.874527,582.789856 106.823380,585.198608   C116.010651,586.907593 116.885246,588.603394 116.273613,601.770081   C113.521698,603.459778 110.838722,601.823120 108.184814,601.346985   C89.693802,598.030090 71.239624,594.502441 52.724476,591.329163   C47.965736,590.513611 46.074688,588.350403 45.582474,583.577393   C44.311371,571.251343 42.405247,573.004578 54.507912,567.340271   C69.132416,560.495605 83.728676,553.590515 98.324005,546.683777   C99.640678,546.060669 100.861023,545.234009 103.433052,543.745361   C95.854332,544.132751 95.417702,540.912598 96.354851,535.681824   C97.647148,528.468811 94.473198,525.272461 86.937271,525.109924   C73.452499,524.819092 59.965267,524.640503 46.478886,524.425964   C40.094196,524.324402 39.863991,524.093262 40.354836,517.965332   C41.163902,507.864502 41.165092,507.739563 51.471291,507.838470   C65.278885,507.970947 79.115799,506.955566 92.887398,508.678680   C99.901161,509.556244 105.673286,512.337891 108.622818,519.773315  M79.544868,581.157043   C84.216103,581.019470 82.516167,577.687988 82.244911,575.378174   C81.905182,572.485291 79.797882,572.713989 77.750336,573.517944   C73.653931,575.126160 69.585068,576.804565 64.218391,578.973938   C70.035614,579.796570 74.414742,580.415894 79.544868,581.157043  z" fill="#d9bf77" opacity="1.000000" stroke="none"/>
<path d=" M488.434814,964.325073   C486.023010,970.228027 483.409302,975.663269 481.583313,981.351440   C479.925232,986.516479 476.408417,986.361755 472.173340,986.230103   C467.506714,986.085083 466.435303,983.219604 465.767212,979.513916   C463.325562,965.971619 460.816803,952.441406 458.396088,939.248779   C456.836853,952.610168 455.116669,966.295471 453.714539,980.013245   C453.296661,984.101440 451.602539,985.634216 447.645935,985.026367   C446.005249,984.774292 444.331512,984.647095 442.671265,984.631531   C439.292847,984.599915 438.451447,982.747620 438.808990,979.743347   C441.147308,960.095398 443.458710,940.444275 445.748444,920.790588   C446.032654,918.351013 447.311584,917.238586 449.723145,917.345886   C450.055695,917.360718 450.386993,917.409058 450.719543,917.418518   C467.393585,917.894531 467.440613,917.884277 470.908752,934.144287   C472.737457,942.717957 474.368713,951.333801 476.124481,960.107239   C478.223022,959.168945 478.319092,957.563477 478.848389,956.224060   C482.947327,945.851868 487.141968,935.516174 491.098450,925.089966   C492.355682,921.776794 494.223053,920.273010 497.808746,920.736572   C501.601196,921.226807 505.422089,921.607239 509.241211,921.749268   C513.028076,921.890137 514.528931,923.518433 514.306946,927.359436   C513.385315,943.306580 512.622253,959.262878 511.801636,975.215820   C511.613525,978.872437 511.367279,982.527344 511.261108,986.186340   C511.173828,989.195312 509.777924,990.149353 506.799866,989.966431   C494.977539,989.240234 494.888763,989.221619 495.977417,977.477539   C497.081970,965.561646 496.961548,953.560242 498.024597,941.471619   C494.875122,948.970276 491.725616,956.468872 488.434814,964.325073  z" fill="#d9bf77" opacity="1.000000" stroke="none"/>
<path d=" M293.798706,155.102173   C287.394867,142.814545 281.268066,130.799728 274.844299,118.945831   C273.037628,115.611946 273.379944,113.655594 276.549286,111.564102   C285.050720,105.953842 293.523621,100.274643 303.661133,98.082870   C317.946533,94.994301 327.318451,105.318207 322.893372,119.092850   C322.587158,120.046097 322.121490,120.934441 322.657898,122.181160   C323.157104,122.321678 323.766083,122.625504 324.385345,122.648079   C340.993561,123.253601 346.588684,142.403931 337.319855,153.836349   C329.236908,163.806091 317.889740,168.667847 306.370148,173.185837   C304.188995,174.041306 302.996338,172.744659 302.060669,170.924988   C299.396576,165.743942 296.667023,160.596558 293.798706,155.102173  M315.542755,155.440445   C318.686493,153.877579 321.810974,152.221405 323.601288,149.033691   C325.790070,145.136536 325.511475,141.288330 322.369263,138.039627   C319.275635,134.841187 311.751678,135.526169 307.137878,139.253296   C303.377716,142.290848 307.374451,144.532349 308.135315,147.017014   C308.806763,149.209702 310.075897,151.226791 311.147003,153.287170   C311.928009,154.789551 312.780273,156.294373 315.542755,155.440445  M295.987457,114.235771   C294.288269,115.282211 292.162079,116.191978 293.370605,118.783554   C294.633667,121.492104 296.074768,124.122826 297.541290,126.729477   C298.566864,128.552383 300.157196,128.664734 301.802124,127.623940   C303.482056,126.561005 305.268921,125.555672 306.661804,124.174896   C309.154327,121.704063 310.756989,118.779922 308.677063,115.242661   C306.745667,111.958000 303.599426,111.798096 300.334564,112.457359   C299.054169,112.715904 297.859589,113.399689 295.987457,114.235771  z" fill="#d9bf77" opacity="1.000000" stroke="none"/>
<path d=" M238.166046,166.420074   C238.570404,170.053970 237.926514,173.159073 237.203156,176.239716   C236.709747,178.341095 237.058487,180.113342 239.390640,180.412827   C242.952209,180.870193 246.464722,182.358032 250.336151,181.314026   C250.978546,177.345001 249.269989,174.006866 247.403015,170.981125   C245.491287,167.882904 246.233994,166.037689 248.654663,163.734299   C256.980133,155.812256 257.131073,155.766937 261.144409,166.540176   C262.774292,170.915436 264.176636,175.385574 264.308167,180.098328   C264.392761,183.129395 265.685394,184.588379 268.743225,184.963867   C273.001923,185.486832 277.218872,186.349335 282.717010,187.280441   C277.394531,192.325378 273.660461,197.829117 267.025909,198.997925   C263.793915,199.567307 262.036102,200.560852 260.733795,203.498367   C258.184662,209.248276 254.191147,213.896393 248.808258,217.264252   C241.540146,221.811600 233.971283,222.486633 226.677704,217.820724   C219.105652,212.976669 216.030045,205.438049 217.206711,196.712128   C217.787079,192.408112 216.739822,190.505615 212.899475,188.700714   C203.972977,184.505356 200.454941,175.721298 203.654892,167.104965   C207.142349,157.714478 217.968323,150.966354 226.466034,153.054047   C233.202972,154.709167 236.746460,159.413773 238.166046,166.420074  M231.917999,194.037399   C229.708054,194.849426 230.150162,196.612762 230.595428,198.182770   C231.664429,201.951859 234.035355,204.599579 237.933960,205.490326   C241.874832,206.390747 245.066193,204.904083 247.590744,201.873276   C249.910873,199.087891 249.665131,197.114105 245.756775,196.400162   C241.374832,195.599731 236.990875,194.810165 231.917999,194.037399  M223.240906,177.113571   C226.830521,174.427124 226.268814,171.028915 224.327362,167.894455   C222.920029,165.622345 220.449966,164.521133 217.872116,166.338974   C215.358643,168.111404 214.689896,170.536240 216.436142,173.294708   C217.859726,175.543472 219.992691,176.723679 223.240906,177.113571  z" fill="#d9bf77" opacity="1.000000" stroke="none"/>
<path d=" M937.116333,697.463013   C916.753357,703.384399 894.482971,691.007629 890.252625,671.753906   C888.968384,665.908691 889.519958,660.122864 891.420044,654.548218   C893.831665,647.472656 896.657288,640.539246 899.182861,633.500916   C900.227417,630.589905 901.979675,630.204468 904.623718,631.229614   C923.224609,638.441345 941.834656,645.630005 960.466614,652.761047   C962.942688,653.708740 963.987915,655.226074 963.111328,657.727112   C959.924988,666.817993 957.288391,676.157227 952.251953,684.471802   C948.735657,690.276855 944.074524,694.952881 937.116333,697.463013  M910.335693,651.877991   C907.867798,650.661072 906.853149,651.850464 905.927490,654.108093   C901.375732,665.209900 905.477600,674.551758 917.199646,679.418335   C930.173462,684.804504 938.915710,681.631470 943.941895,670.004272   C945.414978,666.596497 944.768677,664.887329 941.303040,663.616699   C931.154663,659.896118 921.079895,655.974854 910.335693,651.877991  z" fill="#d9bf77" opacity="1.000000" stroke="none"/>
<path d=" M828.597168,222.198593   C828.122559,233.794647 820.045593,241.748993 815.696655,251.327026   C814.728943,253.458298 813.013977,252.694107 811.646667,251.320038   C809.182678,248.843887 806.758362,246.325211 804.222107,243.925034   C802.229736,242.039642 802.651184,240.002716 803.742065,238.016129   C806.141785,233.645950 808.723083,229.375702 811.139343,225.014328   C812.501465,222.555771 813.898254,220.115097 812.975220,217.027756   C810.891296,210.057068 807.441772,209.047516 802.379395,214.031906   C798.705200,217.649551 794.955078,221.192169 791.346619,224.873917   C789.180908,227.083710 787.301086,227.337524 785.047241,224.966858   C774.773804,214.160965 774.965332,217.561142 784.553650,207.804291   C796.097778,196.057388 807.827026,184.492615 819.461548,172.834396   C825.274048,167.010056 825.292236,166.957703 831.684082,172.552841   C838.695129,178.690002 845.938904,184.678253 850.426514,193.072586   C856.940308,205.256989 851.246094,218.262268 838.182861,221.800323   C834.988037,222.665619 831.917358,221.443710 828.597168,222.198593  M821.750488,205.810211   C823.207275,206.586136 824.588928,207.596909 826.135620,208.091782   C830.022705,209.335510 834.522522,207.080414 836.457947,203.138870   C838.577759,198.821854 836.114746,192.410278 830.976440,189.055618   C826.821106,186.342682 826.229004,191.157669 824.026489,192.504349   C822.787292,193.262039 821.884460,194.565384 820.817688,195.610306   C815.746216,200.577744 815.744751,200.576218 821.750488,205.810211  z" fill="#d9bf77" opacity="1.000000" stroke="none"/>
<path d=" M53.023163,491.270264   C41.778908,489.368042 41.943523,489.387207 43.215450,478.464355   C44.196262,470.041565 44.343517,461.474030 48.370773,453.721252   C54.743713,441.452820 71.554611,439.448151 79.539566,450.021667   C81.120918,452.115662 82.300400,454.513123 83.889084,457.140961   C92.523880,451.963440 102.384468,452.106293 111.713829,450.007538   C115.554619,449.143494 116.646233,450.667999 115.956581,454.195160   C115.924644,454.358490 115.892906,454.521881 115.860596,454.685150   C112.975693,469.263641 115.984993,466.702789 101.574699,468.439240   C98.285873,468.835510 95.020790,469.582550 91.807571,470.411499   C88.221832,471.336609 86.503433,474.278534 86.698036,477.548859   C86.894882,480.856934 90.317863,480.322449 92.648514,480.713715   C97.403954,481.512085 102.177330,482.210907 106.954308,482.871307   C110.479485,483.358673 111.993752,484.722504 111.552498,488.799744   C110.367821,499.746216 110.586250,499.856689 99.826347,498.303894   C84.357986,496.071686 69.025841,492.933594 53.023163,491.270264  M63.297020,476.053650   C65.757454,476.385559 68.219139,476.708496 70.677811,477.052948   C72.033028,477.242798 73.771332,477.436554 74.109901,475.928619   C75.019516,471.877289 75.610664,467.651550 72.789505,464.043213   C70.202751,460.734741 66.658257,459.582489 62.594833,460.774292   C58.954071,461.842133 55.774937,468.252747 56.537083,472.825195   C57.126762,476.363068 60.178223,475.478119 63.297020,476.053650  z" fill="#d9bf77" opacity="1.000000" stroke="none"/>
<path d=" M786.411011,135.551697   C794.402039,141.658890 794.406494,141.660370 791.253845,151.125671   C785.259216,169.123199 779.261902,187.119827 773.256287,205.113708   C772.740356,206.659439 772.453918,208.342316 770.668823,209.820023   C766.069519,207.652344 762.277100,204.167755 758.172058,201.192688   C757.153442,200.454437 757.142151,199.174454 757.518433,197.968872   C757.964539,196.539474 758.485291,195.124008 758.801208,193.665176   C759.640503,189.789627 763.367432,185.687668 761.566650,182.358597   C759.188721,177.962311 753.698975,175.969543 749.605103,172.867065   C747.687195,171.413589 746.134827,172.555222 744.658569,173.669937   C741.602356,175.977524 738.589966,178.343307 735.570496,180.699142   C734.186646,181.778854 732.769287,182.587402 731.048706,181.418472   C727.236389,178.828583 723.169800,176.568970 720.004517,173.328232   C720.279053,170.877747 722.134827,170.096954 723.529724,169.046112   C740.156006,156.520721 756.855164,144.091827 773.442261,131.514999   C776.135986,129.472519 778.310608,129.099884 780.903809,131.480362   C782.488708,132.935272 784.370117,134.067230 786.411011,135.551697  M764.534119,167.616852   C766.845642,169.408554 768.371216,168.887207 769.345886,166.129074   C771.487671,160.068283 773.712158,154.036682 776.199768,147.174011   C770.568726,151.752701 765.635254,155.845276 760.606750,159.817642   C758.213135,161.708466 758.481140,163.274246 760.778503,164.902252   C761.860168,165.668762 762.915283,166.472641 764.534119,167.616852  z" fill="#d9bf77" opacity="1.000000" stroke="none"/>
<path d=" M888.997559,259.994171   C885.387634,255.175095 882.037659,250.609192 878.609375,246.102890   C874.531128,240.742172 874.622681,240.942078 868.860046,244.854904   C865.236023,247.315598 864.198059,249.450958 867.405823,253.105576   C870.582458,256.724670 873.043091,260.972565 876.222778,264.588470   C879.160156,267.928925 878.798950,270.327148 875.261841,272.687958   C874.022522,273.515106 872.909912,274.543365 871.792114,275.538971   C869.691467,277.410126 868.033630,277.018127 866.413208,274.811249   C862.963501,270.112854 859.266418,265.591064 855.936462,260.811707   C853.890503,257.875336 852.151672,257.259125 849.110962,259.640015   C838.331848,268.080048 840.629517,266.395111 847.009338,275.143311   C849.658325,278.775726 852.290405,282.429871 855.131836,285.909454   C857.264282,288.520752 856.996521,290.317749 854.458862,292.596039   C847.090149,299.211853 847.233032,299.275604 841.521545,291.492859   C835.117188,282.765869 828.715759,274.032257 822.085571,265.477844   C819.675110,262.367828 820.023071,260.604675 823.156128,258.265503   C839.436829,246.110199 855.608276,233.806747 871.700867,221.403061   C874.296326,219.402512 875.910645,219.475250 877.843628,222.033951   C885.172180,231.734421 892.565369,241.386444 899.991943,251.012161   C901.618469,253.120392 901.739441,254.826447 899.419495,256.463989   C897.380615,257.903046 895.384705,259.408264 893.431641,260.961853   C891.718994,262.324127 890.401917,261.869202 888.997559,259.994171  z" fill="#d9bf77" opacity="1.000000" stroke="none"/>
<path d=" M514.561707,112.708969   C506.043915,118.014580 497.193970,119.223656 487.875397,116.993683   C477.414520,114.490334 470.633911,106.111099 469.793518,93.961815   C468.886444,80.849106 468.571655,67.696404 467.806702,54.572334   C467.563599,50.402000 468.788300,48.666714 473.271393,48.453861   C484.261627,47.932068 483.902283,47.727821 484.468262,58.713444   C485.058228,70.164688 484.560974,81.690956 486.303345,93.062897   C487.406952,100.265793 491.251953,103.788200 497.254120,103.813332   C503.417603,103.839149 506.846924,100.636215 508.219177,93.159355   C509.188293,87.879105 508.500366,82.538147 508.285889,77.222580   C507.936890,68.573204 507.643890,59.921425 507.257355,51.273785   C507.138306,48.610981 508.227325,47.176235 510.904297,46.993347   C511.070282,46.982010 511.235107,46.952198 511.401154,46.943871   C524.674500,46.277893 523.128967,46.058971 523.366455,57.403824   C523.603271,68.717346 524.853943,80.007919 524.306519,91.335823   C523.908630,99.570412 521.731628,107.103256 514.561707,112.708969  z" fill="#d9bf77" opacity="1.000000" stroke="none"/>
<path d=" M439.903290,70.164658   C448.577637,85.858871 457.065704,101.236000 465.734741,116.940941   C460.431122,119.215851 455.831665,119.765015 451.287079,120.532196   C449.574677,120.821266 448.395233,120.068771 447.540039,118.665115   C447.020172,117.811852 446.501099,116.957047 446.015717,116.083969   C439.344604,104.083748 438.254303,103.703323 425.172455,108.299675   C423.370026,108.932961 422.365753,109.912331 422.138794,111.784935   C421.958496,113.272339 421.626648,114.742302 421.468445,116.231308   C420.326050,126.984573 418.082489,129.003540 407.211121,129.618073   C404.020721,129.798431 404.039581,128.072586 404.255188,125.878639   C405.833344,109.818184 407.392975,93.755882 408.996521,77.697968   C409.508911,72.566887 410.233337,67.455582 410.671936,62.319107   C410.905365,59.584957 412.014252,58.095806 414.818542,57.627689   C418.755524,56.970497 422.695465,56.208298 426.537598,55.142872   C429.738281,54.255329 431.618561,55.466888 433.081238,58.097775   C435.266846,62.028984 437.502594,65.932350 439.903290,70.164658  M431.490662,86.807259   C428.763947,82.438644 427.339233,77.299469 423.604370,72.768669   C423.174835,80.413719 422.787506,87.307480 422.372253,94.698097   C426.757751,94.735443 430.356567,94.355484 433.549835,92.307961   C433.702881,90.191086 432.489441,88.915421 431.490662,86.807259  z" fill="#d9bf77" opacity="1.000000" stroke="none"/>
<path d=" M176.952301,283.999878   C165.813858,267.569855 154.947067,251.393112 143.865295,235.365005   C141.898331,232.520081 141.941071,230.672287 144.115753,227.985550   C154.290848,215.414734 154.216064,215.345154 169.390717,221.494751   C185.128448,227.872559 200.835052,234.328278 216.612473,240.606171   C220.425369,242.123322 221.102890,243.543427 218.272903,246.965302   C210.326736,256.573395 210.374924,256.856964 199.225479,251.687851   C194.651779,249.567368 191.794495,250.107346 188.813690,254.362854   C180.990646,265.531311 180.834671,261.411194 188.621017,272.666687   C192.882431,278.826721 193.080093,278.817871 188.350586,284.433685   C186.468063,286.669006 185.236893,289.594482 182.216080,290.922211   C179.451904,289.499023 178.848846,286.470886 176.952301,283.999878  M164.142151,239.557861   C167.456589,243.582062 169.720718,248.449524 173.496414,252.077072   C176.653702,250.509369 177.919373,247.891205 179.592178,245.679230   C180.574875,244.379822 180.279907,243.068253 178.800873,242.366074   C173.195068,239.704636 167.549332,237.127274 161.532730,234.339737   C161.632050,236.882812 163.008621,237.773987 164.142151,239.557861  z" fill="#d9bf77" opacity="1.000000" stroke="none"/>
<path d=" M67.338943,416.698914   C56.067574,409.416473 56.375950,409.494110 59.560680,396.846283   C60.943962,391.352783 63.619205,389.736267 68.954422,389.806335   C88.260895,390.060181 107.538689,389.034760 126.813194,387.965057   C133.627304,387.586884 133.884598,388.111969 131.865387,394.511597   C127.845909,407.250671 129.935791,405.019745 117.374001,405.088562   C112.684906,405.114258 110.240753,406.343872 108.966400,411.265228   C106.010384,422.681030 105.494759,423.016357 115.557083,428.630829   C121.193771,431.775940 120.885498,435.311096 119.490440,440.456818   C116.891037,450.044830 117.563660,449.504486 109.857208,444.472656   C95.783577,435.283386 81.709244,426.095184 67.338943,416.698914  M75.567993,404.521210   C80.683083,409.933655 87.750694,412.081177 93.380142,416.104218   C95.557549,414.509827 95.664673,412.751434 96.116257,411.200195   C97.630272,405.999390 97.210976,405.475220 91.898102,405.246582   C86.590790,405.018158 81.286552,404.718170 75.567993,404.521210  z" fill="#d9bf77" opacity="1.000000" stroke="none"/>
<path d=" M293.129761,907.133423   C302.508545,897.178467 311.723053,887.552734 320.723267,877.730652   C323.278168,874.942505 325.508545,874.495789 328.961975,876.115784   C342.691498,882.556519 342.700195,882.449036 340.516785,897.254028   C338.041931,914.035156 335.655365,930.829224 333.202820,947.613647   C332.941956,949.398743 332.787903,951.263062 330.900208,953.204590   C326.819061,951.171631 322.529999,949.084045 318.292908,946.895874   C316.946930,946.200806 316.704071,944.825623 316.863678,943.424194   C316.995300,942.268921 317.270020,941.129883 317.397186,939.974304   C318.917999,926.156677 321.958862,929.144409 307.617981,921.876282   C304.585541,920.339355 302.289429,920.485718 300.242859,923.246399   C299.749023,923.912598 299.143097,924.495911 298.585724,925.114685   C290.456360,934.138245 290.493439,934.067627 279.778839,928.410950   C276.789368,926.832825 276.188934,925.343140 278.619202,922.777344   C283.429077,917.699585 288.135223,912.523560 293.129761,907.133423  M317.178345,902.641968   C315.497284,904.811584 312.764557,906.232666 312.272736,909.481506   C315.115906,911.824707 318.171722,913.489685 322.431091,913.741882   C323.691589,906.727356 324.910736,899.942871 326.331635,892.035461   C322.861420,896.075378 320.260803,899.102966 317.178345,902.641968  z" fill="#d9bf77" opacity="1.000000" stroke="none"/>
<path d=" M934.273804,355.524445   C919.308960,362.123901 907.019836,357.484802 898.582520,342.365265   C895.336975,336.549164 895.336304,336.547852 889.347168,339.511475   C885.319458,341.504547 881.249634,343.418671 877.283630,345.527863   C874.792480,346.852692 873.195251,346.284790 872.134277,343.772308   C872.069824,343.619537 871.967834,343.482544 871.903748,343.329620   C865.894653,329.005981 864.435486,332.765991 877.531860,326.173553   C893.139038,318.317291 908.939880,310.845764 924.554138,303.003174   C928.475647,301.033478 930.796021,301.343231 932.880554,305.505981   C936.899475,313.531494 941.784851,321.151123 944.178528,329.911499   C947.180908,340.899567 944.097168,348.941986 934.273804,355.524445  M926.533691,322.501678   C919.767883,322.764313 914.778748,327.120483 909.237305,330.144104   C907.902771,330.872253 908.387207,332.597717 909.155090,333.755615   C910.341980,335.545319 911.500183,337.421173 913.012146,338.914673   C916.526733,342.386414 921.625427,342.805939 925.826538,340.043976   C929.937195,337.341492 931.409485,333.565826 929.648987,328.841187   C928.900940,326.833832 927.872192,324.931091 926.533691,322.501678  z" fill="#d9bf77" opacity="1.000000" stroke="none"/>
<path d=" M589.266357,947.454956   C590.077209,937.043152 590.937500,927.099060 591.491516,917.137817   C591.662903,914.055908 593.041321,912.818237 595.790466,912.024719   C611.100586,907.605530 611.233521,907.475464 619.323364,921.194580   C628.116150,936.105896 636.571716,951.215698 645.246826,966.196899   C646.915955,969.079285 646.764526,970.709229 643.087463,971.367065   C627.766479,974.108459 631.940430,976.016052 624.664246,963.589478   C622.311829,959.571716 620.104858,957.937439 615.183655,959.173096   C604.862244,961.764465 604.890686,961.466797 603.693115,971.973511   C603.385559,974.672058 604.703796,978.313965 602.050171,979.917603   C598.221863,982.231079 593.559753,982.689209 589.123718,983.316833   C587.014465,983.615295 586.802429,981.882629 586.914795,980.270813   C587.666321,969.485229 588.434814,958.700806 589.266357,947.454956  M612.898438,940.398071   C610.408875,935.870300 607.919312,931.342468 605.429688,926.814697   C604.993835,926.919922 604.557922,927.025085 604.122070,927.130249   C604.122070,932.035095 604.223877,936.942566 604.096863,941.844116   C603.929688,948.293823 604.565796,948.924622 610.677795,947.369690   C612.064331,947.016968 613.667175,946.980042 614.655884,945.590271   C615.135620,943.774780 613.799683,942.512390 612.898438,940.398071  z" fill="#d9bf77" opacity="1.000000" stroke="none"/>
<path d=" M369.966248,68.943298   C375.979218,66.913979 375.756653,67.003494 378.626038,74.138107   C380.369598,78.473351 379.808319,80.847061 375.018433,82.192574   C370.061371,83.585030 365.257111,85.537025 360.419189,87.333702   C355.010468,89.342369 355.157776,89.513519 357.431732,96.439964   C358.803192,100.617371 361.062317,100.875267 364.634369,99.447372   C369.270508,97.594101 374.114105,96.251472 378.718567,94.329933   C382.228241,92.865273 384.082886,93.895927 385.043854,97.322426   C385.088745,97.482384 385.149689,97.638123 385.208435,97.793839   C388.176208,105.660538 388.175171,105.657402 380.118591,108.528763   C376.041504,109.981834 372.009491,111.577309 367.881256,112.865417   C364.943542,113.782066 364.357758,115.454552 365.298126,118.160698   C369.158936,129.271027 367.616272,129.052078 378.206787,125.204735   C382.745880,123.555771 387.350586,122.076859 391.837646,120.298973   C395.024292,119.036346 396.943085,119.772812 397.855286,123.110336   C398.117310,124.069000 398.500366,125.009727 398.943665,125.901115   C401.033417,130.103271 399.986877,132.403458 395.289368,133.921738   C384.365784,137.452362 373.571411,141.396469 362.801819,145.381546   C359.337524,146.663452 357.774963,145.857025 356.548798,142.356842   C350.162079,124.125565 343.723297,105.908127 336.916077,87.831436   C335.062958,82.910423 336.517609,81.148323 341.024597,79.617859   C350.640503,76.352539 360.097351,72.618912 369.966248,68.943298  z" fill="#d9bf77" opacity="1.000000" stroke="none"/>
<path d=" M906.927002,396.899292   C923.285034,385.186493 939.354248,373.683411 955.826660,361.891693   C959.169800,366.645935 960.299805,371.849030 961.792725,376.852692   C962.467407,379.114166 960.238098,379.975494 958.802979,380.957886   C946.855530,389.136169 935.100708,397.604492 922.689941,405.090210   C921.418762,405.856903 920.198242,406.707642 919.020813,407.475891   C931.898560,407.475891 944.774353,407.788696 957.628357,407.392303   C971.904297,406.952087 973.107666,407.807617 973.462402,422.364075   C972.147827,423.776184 970.386169,423.347015 968.786560,423.347748   C948.974854,423.356750 929.162415,423.218323 909.352112,423.373840   C904.574158,423.411346 901.669739,421.950043 901.092102,416.989868   C901.054565,416.668121 900.865234,416.366089 900.762329,416.049713   C897.001343,404.474670 897.001648,404.474579 906.927002,396.899292  z" fill="#d9bf77" opacity="1.000000" stroke="none"/>
<path d=" M343.841309,947.057983   C357.497253,936.157227 370.909485,925.539001 385.204956,914.221558   C377.692810,911.701416 371.001068,909.546997 364.384369,907.182434   C362.361023,906.459412 358.889465,906.724915 359.101318,903.659546   C359.347321,900.100098 360.206421,896.380798 362.398254,893.371338   C363.257904,892.191101 364.885101,892.987366 366.144867,893.398071   C379.583832,897.778870 393.006622,902.210083 406.470032,906.514282   C409.509155,907.486023 410.185730,909.052673 409.395447,912.116577   C408.400360,915.974487 405.925018,918.394226 402.958313,920.663818   C391.992462,929.052490 381.068207,937.495667 370.157318,945.955811   C368.745575,947.050476 367.079742,947.951904 366.215942,950.114014   C369.351074,952.752319 373.488983,952.973999 377.111694,954.355652   C380.056183,955.478577 383.140472,956.235840 386.164581,957.149109   C395.129913,959.856506 396.159943,962.762207 391.330566,970.944153   C390.199036,972.861206 388.875061,972.913879 387.164001,972.348022   C372.638245,967.544006 358.119141,962.719910 343.592133,957.919617   C340.936584,957.042175 340.366211,955.373169 341.430878,952.893494   C342.214294,951.068848 342.879700,949.193420 343.841309,947.057983  z" fill="#d9bf77" opacity="1.000000" stroke="none"/>
<path d=" M111.506516,300.563202   C100.690079,293.404053 99.129654,296.561310 106.350746,282.173187   C108.819000,277.255157 111.758331,272.603943 115.363533,268.428650   C123.264587,259.278259 133.030350,257.269348 143.050720,262.645782   C153.243057,268.114502 157.386230,277.819214 154.454086,289.177948   C153.486389,292.926666 151.918655,296.415375 149.884033,299.654205   C148.142334,302.426727 148.815445,304.204559 151.437973,305.798950   C155.844940,308.478180 160.154190,311.317780 164.550705,314.014648   C167.021378,315.530151 167.336487,317.056488 165.805573,319.715210   C159.673233,330.365234 159.790497,330.393951 149.616043,324.084625   C137.032913,316.281677 124.416595,308.532257 111.506516,300.563202  M137.388702,294.593506   C138.200790,293.159576 139.195251,291.797424 139.793060,290.279114   C142.241928,284.059479 139.593033,278.367676 133.438538,276.377289   C128.218582,274.689117 122.557281,278.069885 120.805763,283.847565   C120.438225,285.059937 120.213646,286.391357 121.316353,287.015717   C126.381294,289.883606 130.577148,294.474274 137.388702,294.593506  z" fill="#d9bf77" opacity="1.000000" stroke="none"/>
<path d=" M97.059929,655.105713   C88.134972,660.674438 79.466637,665.974487 70.925285,671.471863   C67.959457,673.380676 66.474236,673.267456 65.144661,669.618774   C61.035824,658.343262 60.856796,658.310181 71.089516,652.020325   C80.310585,646.352417 89.663109,640.898621 98.938972,635.319336   C100.435936,634.418884 102.226898,633.815063 103.102493,631.777466   C91.526138,630.971375 80.122208,630.174438 68.717552,629.388062   C67.721100,629.319336 66.719345,629.331604 65.721054,629.284851   C53.696289,628.722168 52.431129,627.474731 50.997467,615.650818   C50.629520,612.616211 51.773499,611.699219 54.563904,611.975281   C68.972534,613.400696 83.387360,614.764526 97.792229,616.226685   C104.579056,616.915588 111.338440,617.885559 118.130493,618.507141   C120.936005,618.763855 122.311302,620.179321 122.960464,622.682861   C123.044006,623.005066 123.148346,623.322327 123.221825,623.646667   C126.398636,637.667297 128.779053,633.838501 116.155571,642.575928   C109.996460,646.838928 103.635834,650.810852 97.059929,655.105713  z" fill="#d9bf77" opacity="1.000000" stroke="none"/>
<path d=" M528.645142,958.169189   C527.731384,947.933838 526.997498,938.143127 525.867188,928.398376   C525.391724,924.299622 526.564941,922.092896 530.696655,921.357544   C540.037781,919.694885 549.345520,917.738708 558.904968,919.508728   C568.683105,921.319214 574.257324,926.906677 575.922668,936.554871   C577.535767,945.900269 573.689880,954.535461 565.675598,959.139404   C561.151733,961.738098 556.261780,963.350830 550.992615,963.568604   C546.881042,963.738586 544.996704,965.269409 545.900757,969.869019   C546.793640,974.412170 546.826111,979.123047 547.259338,983.758240   C547.521667,986.563904 546.480896,987.976318 543.481689,988.387817   C531.883484,989.978943 531.824646,990.067261 530.504456,978.496582   C529.750854,971.891235 529.269043,965.254822 528.645142,958.169189  M557.981506,934.636658   C555.876221,932.493530 553.149658,931.743164 550.314880,931.501587   C544.821289,931.033264 543.098389,932.682068 543.333435,938.228210   C543.473511,941.533630 543.954102,944.823425 544.229919,948.124573   C544.439209,950.630493 545.787903,951.527161 548.223145,951.390991   C557.899048,950.849915 562.154053,944.182007 557.981506,934.636658  z" fill="#d9bf77" opacity="1.000000" stroke="none"/>
<path d=" M109.324272,357.608948   C101.544357,361.750092 94.236778,361.670807 87.402206,356.556122   C80.166222,351.141052 78.462448,343.542297 80.113182,335.121735   C81.585922,327.609131 85.370270,321.179932 90.396568,315.414825   C92.610603,312.875366 94.615616,312.486542 97.071869,314.920288   C98.133324,315.972015 99.292320,316.944153 100.498878,317.826874   C103.432480,319.973145 103.621902,321.975342 100.933144,324.690338   C97.867531,327.785828 95.653984,331.579865 94.568604,335.861542   C93.936783,338.354004 93.905640,340.935760 96.269981,342.693787   C98.818993,344.589020 101.456764,343.878326 103.657402,342.148193   C108.103340,338.652802 112.154198,334.626740 116.749512,331.355469   C126.093086,324.704102 137.230743,326.086243 144.098816,334.373871   C149.133301,340.448944 149.368637,347.575287 147.987198,354.762970   C146.378265,363.134125 141.998581,370.181458 136.389587,376.547028   C133.739777,379.554291 131.331573,379.849915 128.414154,377.031830   C126.406425,375.092407 123.688499,373.932953 122.018028,371.535706   C122.984695,368.516754 125.687721,367.146423 127.483742,365.038483   C130.213837,361.834229 132.520538,358.433899 133.908249,354.427002   C135.025406,351.201355 135.210999,348.108276 132.317200,345.757721   C129.185333,343.213837 125.986328,344.240204 123.131187,346.340454   C118.445244,349.787506 114.790726,354.503784 109.324272,357.608948  z" fill="#d9bf77" opacity="1.000000" stroke="none"/>
<path d=" M683.504272,152.390701   C670.710266,134.991440 679.094421,114.799530 689.465942,104.997459   C701.661377,93.471664 721.085999,92.430199 736.070801,102.653915   C736.895935,103.216888 737.705200,103.804535 738.503906,104.404610   C748.424866,111.858521 745.861938,111.657974 738.376831,119.502991   C737.155579,120.783020 735.771545,120.861618 734.425720,119.593483   C733.941101,119.136818 733.481567,118.651291 732.976562,118.218719   C726.099915,112.328682 718.517822,108.100838 709.269592,111.544601   C700.027466,114.986076 696.165283,122.959442 694.553894,132.052490   C692.740417,142.285934 700.556763,151.680786 712.811829,154.550034   C715.112854,155.088760 718.536865,154.271988 719.200562,157.238586   C720.060303,161.081177 718.192444,164.766785 716.340881,168.097397   C715.415161,169.762634 713.371399,169.122375 711.731873,168.781509   C700.635437,166.474579 691.071777,161.502747 683.504272,152.390701  z" fill="#d9bf77" opacity="1.000000" stroke="none"/>
<path d=" M827.853455,809.563721   C828.688293,806.252991 826.887695,804.520813 824.974854,802.810791   C820.669189,798.961609 816.385559,795.087646 811.843323,790.999023   C814.209106,788.379944 816.819275,788.872864 819.155701,788.740601   C835.291748,787.827698 835.264893,787.836975 841.618713,773.099121   C842.640808,770.728394 842.911926,767.887268 845.800781,765.905884   C849.241455,770.343140 850.892761,775.616577 852.916443,780.559631   C854.961426,785.554565 858.019348,787.635742 863.388245,788.006165   C868.446472,788.355042 873.721313,788.220825 878.692505,790.320984   C878.751160,793.544739 876.109009,794.662659 874.244446,795.917419   C865.296692,801.938538 860.248169,809.043701 865.080566,820.377441   C866.184692,822.967041 867.362732,826.316711 865.766907,829.842590   C860.760254,827.778076 856.215576,825.035339 851.960510,821.981384   C847.573303,818.832581 843.865540,818.644714 839.330872,821.804932   C835.029663,824.802612 830.472473,827.604187 824.703674,829.706116   C824.357483,822.538940 827.178467,816.378784 827.853455,809.563721  z" fill="#d9bf77" opacity="1.000000" stroke="none"/>
<path d=" M177.307587,778.351990   C179.441849,774.225098 180.380341,769.919495 183.233887,766.209717   C186.336380,768.091736 186.939529,771.303345 188.166275,774.040283   C195.607101,790.641235 191.567459,786.203064 208.596344,788.688538   C211.340744,789.089111 214.237289,788.751831 217.478149,791.100403   C213.415604,794.739197 209.758652,798.483704 205.620804,801.586975   C201.601639,804.601257 200.472061,807.804504 201.889633,812.710876   C203.390594,817.905823 203.916458,823.382446 204.949783,829.194946   C200.328720,829.043030 197.180435,826.570557 194.424118,824.375549   C187.109741,818.550598 180.399628,818.388611 173.125504,824.355835   C170.277893,826.691895 166.839386,828.502991 162.683472,829.787720   C162.546890,822.819092 164.580612,816.804565 165.934357,810.740601   C166.669571,807.447205 165.828323,805.465271 163.508987,803.352722   C159.127686,799.362000 154.212158,795.910339 150.392426,791.332397   C151.734436,788.795959 153.913910,789.144470 155.774948,788.917603   C158.577332,788.575928 161.423874,788.063232 164.211945,788.242004   C171.338455,788.699219 175.388748,785.335571 177.307587,778.351990  z" fill="#d9bf77" opacity="1.000000" stroke="none"/>
<path d=" M750.537109,861.481079   C747.867737,863.890503 746.206360,866.569824 745.072693,869.560730   C743.943604,872.539429 742.405884,872.697571 739.750793,871.088684   C731.906494,866.335571 731.580994,865.348022 736.606018,857.662781   C739.380859,853.418945 742.971985,849.986450 747.189819,847.199463   C754.170105,842.587219 761.532349,840.898132 769.351807,844.856262   C777.271240,848.864868 780.543091,855.895081 781.285583,864.351929   C781.876831,871.086731 780.294006,877.585327 778.906433,884.091980   C778.530396,885.854980 777.788208,887.561707 778.444763,890.102539   C783.183228,886.956299 787.836060,884.162476 792.147095,880.914978   C795.881165,878.101990 798.366699,878.653198 800.402710,882.715698   C800.995178,883.897949 801.802734,884.983276 802.592163,886.053650   C804.456726,888.581482 804.089111,890.271851 801.292114,892.075012   C790.940002,898.748535 780.781433,905.721680 770.460938,912.445435   C768.564209,913.681152 766.504272,916.881958 764.090332,914.545105   C761.501587,912.039001 758.414856,909.180176 759.901062,904.607727   C762.943054,895.248962 764.844177,885.629883 766.256287,875.902588   C766.667419,873.070496 766.721252,870.302612 766.083252,867.482971   C764.029175,858.405334 758.658081,856.183960 750.537109,861.481079  z" fill="#d9bf77" opacity="1.000000" stroke="none"/>
<path d=" M641.328979,69.252106   C643.182983,66.326675 645.366089,65.534958 648.357178,66.621033   C652.345947,68.069397 656.864014,67.996536 660.427551,70.561386   C660.502747,72.976875 658.737305,73.945976 657.503662,75.200119   C649.674377,83.159355 641.880493,91.156113 633.910034,98.972443   C630.828796,101.994102 628.758667,105.293205 627.822144,109.572006   C626.506348,115.583504 624.646973,121.474625 623.085022,127.434280   C622.377502,130.133835 621.120850,131.156479 618.068848,130.532806   C605.297852,127.923035 604.718994,127.824242 609.068787,115.576553   C612.948669,104.652054 612.575256,94.223167 609.329224,83.414597   C607.127869,76.084496 605.495422,68.582176 603.667542,61.142380   C603.282532,59.575497 602.412598,58.016006 603.370667,55.739010   C608.728577,56.048996 613.891541,57.740822 618.948120,59.639053   C621.066711,60.434376 620.986450,62.879223 621.310059,64.828285   C622.586487,72.513901 623.847534,80.202049 625.344177,89.283943   C631.106201,82.058601 636.101013,75.795273 641.328979,69.252106  z" fill="#d9bf77" opacity="1.000000" stroke="none"/>
<path d=" M965.478149,451.237244   C965.194336,449.685486 964.933105,448.546692 964.787231,447.393341   C963.670593,438.566864 963.710388,438.773285 972.662048,437.351807   C976.521240,436.738983 977.768372,438.171600 978.241516,441.585114   C980.340698,456.730377 982.407227,471.882202 984.764282,486.988190   C985.355835,490.779236 984.197388,492.300537 980.589478,492.507355   C979.602905,492.563934 978.629272,492.877350 977.653687,493.090942   C973.346069,494.034180 971.244141,493.101105 970.450378,487.947205   C968.213135,473.420471 971.083984,474.527771 955.426025,476.907501   C943.423828,478.731659 931.393860,480.388428 919.424561,482.406250   C915.027771,483.147461 913.309143,481.597046 912.985657,477.397095   C912.096375,465.851166 909.599243,467.296204 921.701233,465.289276   C934.330750,463.194855 947.013062,461.420624 959.661621,459.437988   C966.330261,458.392700 966.319946,458.326782 965.478149,451.237244  z" fill="#d9bf77" opacity="1.000000" stroke="none"/>
<path d=" M974.995605,613.754395   C973.330505,621.138794 971.727173,628.106018 970.237854,635.097473   C969.536194,638.391235 967.937561,639.292297 964.535461,638.541199   C955.289917,636.500000 955.229919,636.610229 957.263428,627.570740   C957.445984,626.759216 957.599915,625.941162 957.781372,625.129395   C959.163330,618.946350 958.953186,618.678589 952.502747,617.334900   C939.639893,614.655334 926.784729,611.938843 913.928528,609.227356   C912.300354,608.883911 910.669922,608.533325 909.068848,608.084961   C907.761658,607.718872 906.218567,607.118835 906.349365,605.578064   C906.714966,601.270386 907.343445,596.920776 909.179504,592.996887   C910.249451,590.710205 912.698303,591.782410 914.586060,592.177124   C928.593750,595.106323 942.625305,597.934814 956.574768,601.121216   C961.033875,602.139771 963.220276,601.070984 963.819702,596.495605   C964.142273,594.033752 965.172424,591.659668 965.445862,589.197388   C965.972961,584.450928 967.974609,583.095825 972.803528,584.332275   C980.532959,586.311401 980.623962,586.001343 979.067322,593.780762   C977.761719,600.305969 976.426331,606.825256 974.995605,613.754395  z" fill="#d9bf77" opacity="1.000000" stroke="none"/>
<path d=" M569.280029,91.986694   C568.320068,100.030655 567.264282,107.609314 566.493408,115.216850   C566.168823,118.419754 564.749023,119.397697 561.651917,119.336113   C550.259583,119.109558 549.510620,118.411858 550.819275,107.356895   C552.323608,94.649323 553.871826,81.946373 555.512817,69.255882   C556.002441,65.469978 555.049011,63.120354 550.853455,62.728256   C547.877014,62.450092 544.942200,61.666794 541.965027,61.471718   C538.292969,61.231113 537.675720,59.449116 538.175293,56.141499   C539.596558,46.732220 539.469360,46.861530 549.019775,48.115337   C561.717712,49.782349 574.442139,51.258106 587.170654,52.676453   C590.900452,53.092068 593.576660,53.648563 592.782043,58.609154   C591.349976,67.549004 591.435364,67.709999 585.245544,66.843475   C583.269714,66.566887 581.274658,66.430214 579.290100,66.214035   C572.546631,65.479485 572.288635,65.635696 571.489319,72.204544   C570.706177,78.640915 570.025269,85.089729 569.280029,91.986694  z" fill="#d9bf77" opacity="1.000000" stroke="none"/>
<path d=" M662.512268,953.360352   C658.176880,940.894714 653.875732,928.833557 649.817688,916.691040   C648.704590,913.360352 647.099121,912.440552 643.928406,913.874695   C642.423035,914.555542 640.770752,914.905396 639.201294,915.451904   C630.902283,918.341675 628.109497,916.488586 627.003601,907.630188   C626.717041,905.334595 628.035706,904.637695 629.621033,904.065491   C644.012268,898.871399 658.426331,893.740601 672.812805,888.533447   C675.135437,887.692810 676.659729,888.110046 677.474243,890.560120   C678.050598,892.293884 678.630981,894.038330 679.384460,895.698547   C680.896729,899.030334 679.898010,901.046692 676.444031,902.109497   C673.903137,902.891296 671.462097,904.011536 668.904846,904.723328   C664.810669,905.862854 663.780945,907.994019 665.271729,912.120422   C670.184204,925.718323 674.648804,939.478821 679.622070,953.053528   C681.229858,957.441833 680.182739,959.190552 675.829956,960.505920   C666.128296,963.437500 666.188904,963.638062 662.512268,953.360352  z" fill="#d9bf77" opacity="1.000000" stroke="none"/>
<path d=" M265.162170,848.170410   C267.171753,845.931274 267.569366,841.476379 270.890900,842.429443   C275.271759,843.686462 279.323181,846.456848 282.162903,850.226074   C283.259857,851.682007 281.294037,853.230957 280.434540,854.585144   C272.682953,866.798401 265.018860,879.070374 257.046936,891.138794   C254.706818,894.681396 255.275436,896.558533 258.766785,898.582092   C264.229309,901.748108 269.452209,905.324707 274.853455,908.600586   C277.372498,910.128479 277.858246,911.720947 276.186371,914.276428   C269.380707,924.679016 271.656189,923.366882 262.390259,917.605774   C253.921112,912.340088 245.723541,906.637817 237.258362,901.365479   C233.710907,899.156128 233.574890,897.183411 235.810379,893.778381   C245.665787,878.766724 255.269226,863.589722 265.162170,848.170410  z" fill="#d9bf77" opacity="1.000000" stroke="none"/>
<path d=" M984.276855,549.145508   C983.454651,557.744202 983.267151,557.678162 975.068787,556.895569   C961.147888,555.566589 947.194214,554.585022 933.258667,553.405090   C929.973511,553.126953 928.272095,554.372437 927.998657,557.771851   C927.571716,563.079529 926.748047,568.360657 926.467529,573.672791   C926.274902,577.319397 924.796143,578.824951 921.189148,578.406433   C919.372070,578.195496 917.527466,578.233826 915.702271,578.078186   C913.323181,577.875305 912.099182,576.680481 912.318909,574.138062   C913.278625,563.031555 914.285400,551.927734 915.077454,540.808899   C915.394165,536.363708 917.680969,535.389465 921.677246,535.716797   C940.100403,537.226501 958.542542,538.505920 976.965393,540.019043   C984.576660,540.644165 984.562500,540.816589 984.276855,549.145508  z" fill="#d9bf77" opacity="1.000000" stroke="none"/>
<path d=" M407.417328,961.549561   C410.897858,945.546387 414.342682,929.967590 417.603973,914.350464   C418.290924,911.060852 420.044373,910.313354 422.949036,910.931885   C423.274292,911.001160 423.597229,911.082581 423.919128,911.166504   C436.131866,914.350281 434.301361,913.024597 432.138916,923.707092   C428.643616,940.973999 424.812256,958.172607 421.213776,975.419006   C420.512329,978.781006 419.138519,980.232666 415.434570,979.361755   C402.275635,976.267761 403.894745,977.988586 406.509644,965.868225   C406.790100,964.568054 407.047943,963.263062 407.417328,961.549561  z" fill="#d9bf77" opacity="1.000000" stroke="none"/>
<path d=" M726.012207,913.177368   C720.325439,916.003296 714.942932,918.628662 709.604126,921.340088   C704.623474,923.869751 704.252747,919.233154 702.534119,916.811829   C700.594238,914.078674 701.079956,912.081543 704.331726,910.554565   C709.748779,908.010925 715.102722,905.302795 720.318054,902.370178   C723.695068,900.471252 726.055969,899.726501 728.275818,904.092957   C730.251892,907.979614 731.738525,911.046814 726.012207,913.177368  z" fill="#d9bf77" opacity="1.000000" stroke="none"/>
<path d=" M919.875488,503.670105   C927.735352,500.929779 933.378113,503.618439 934.224060,510.299347   C934.791626,514.781494 933.642944,518.849365 929.177002,520.679199   C925.126648,522.338745 920.935303,522.154541 917.824951,518.361694   C914.714417,514.568542 914.655334,510.463409 917.138123,506.338928   C917.716492,505.378021 918.727783,504.677643 919.875488,503.670105  z" fill="#d9bf77" opacity="1.000000" stroke="none"/>
<path d=" M877.382690,692.147339   C882.608154,690.836548 886.735596,691.874695 889.238464,696.490906   C891.380554,700.441772 890.525208,704.246521 887.693481,707.577148   C884.588867,711.228760 879.347534,711.871155 875.551392,709.196411   C871.552673,706.378845 870.316162,701.275208 872.549255,696.798462   C873.545288,694.801697 875.022522,693.282715 877.382690,692.147339  z" fill="#d9bf77" opacity="1.000000" stroke="none"/>
<path d=" M276.956055,485.165588   C274.473297,477.673584 275.589325,471.032196 279.598724,464.758087   C282.019684,460.969666 284.332794,457.112488 286.723114,453.304230   C288.873291,449.878510 291.391541,446.597961 294.917664,444.685303   C300.003601,441.926605 303.883423,438.768860 305.847778,432.838470   C307.364319,428.260071 312.122833,426.064362 316.813293,424.972046   C319.555176,424.333496 320.523895,422.969452 320.868011,420.222961   C322.245880,409.226257 327.771271,404.879028 338.875671,404.460999   C347.436462,404.138763 353.675873,407.008209 359.133942,413.781647   C367.137207,423.713623 376.073608,432.893707 385.151764,442.157837   C385.912964,432.583740 382.950989,423.458832 382.907990,414.174469   C397.883789,412.226288 411.603149,423.461884 413.346619,438.312286   C414.257446,446.070374 415.853485,453.749390 417.195007,461.454529   C417.504913,463.234344 417.817230,465.072174 419.382568,466.486420   C421.809723,466.233337 423.100067,463.923553 425.279755,463.129639   C431.434326,460.887939 437.890778,462.774658 441.504120,468.318542   C442.767853,470.257477 443.931549,471.835999 446.527344,471.643341   C454.098785,471.081451 459.848846,473.756958 462.841888,481.756256   C473.476166,460.075531 487.698639,443.120941 513.300171,442.986359   C538.818115,442.852142 552.859863,459.897491 563.656006,481.248352   C566.130859,478.683502 567.038818,474.672150 569.982361,474.020508   C578.351318,472.167847 585.321777,468.252869 592.318665,463.319305   C596.956421,460.049194 602.892517,463.109772 607.285400,467.186340   C610.185913,464.294312 610.005371,460.767212 610.587646,457.646851   C612.112976,449.472748 613.239441,441.225128 614.623779,433.023499   C615.944946,425.196350 620.489685,420.177094 628.107666,417.900879   C631.937683,416.756439 635.740967,415.521484 639.547180,414.298828   C643.249817,413.109467 644.437378,414.432037 643.855530,418.187073   C642.616272,426.185089 641.567688,434.212677 640.404968,442.483765   C643.284607,442.133087 644.221924,440.141663 645.484131,438.756866   C653.901306,429.522064 662.333984,420.295959 670.520386,410.857819   C677.390198,402.937531 686.260620,403.431824 694.953308,405.278046   C702.631287,406.908722 705.543884,413.361786 706.220886,420.672424   C706.467529,423.336853 707.694763,424.385956 710.093018,425.024292   C717.033569,426.871521 722.036072,430.799164 723.422852,438.288177   C723.821838,440.442810 725.622498,441.042267 727.283203,441.812195   C733.385803,444.641541 737.947693,449.083130 741.264587,454.919403   C743.320435,458.536804 745.546997,462.060577 747.784058,465.570862   C751.496887,471.396912 752.484192,477.624146 750.403687,484.196991   C749.576782,486.809204 749.882629,488.266418 752.821106,488.863586   C759.154785,490.150726 764.352051,493.150848 767.302246,499.217102   C768.477051,501.632568 770.104004,500.871887 771.882385,500.016663   C775.340881,498.353455 778.845581,496.847900 782.794922,496.707520   C791.162048,496.410126 798.199280,500.538666 801.705750,508.100525   C805.238464,515.719055 803.962280,522.857117 798.577026,529.026428   C793.008179,535.406128 785.854126,537.174744 777.711731,534.745911   C777.073853,534.555725 776.369141,534.429565 775.838074,534.065613   C771.002563,530.751526 767.733826,531.738403 764.809448,536.984253   C762.762268,540.656555 758.898315,542.774841 754.542786,543.449890   C750.921143,544.011108 749.196777,545.558716 750.664307,549.544678   C751.835510,552.725525 752.172241,556.412598 750.778442,559.367920   C744.924927,571.779297 739.979126,585.018677 726.243408,591.431519   C724.632507,592.183655 723.640503,593.214478 723.214722,595.063416   C721.545593,602.311401 716.733215,606.582764 709.664978,608.143860   C706.846558,608.766235 705.948608,609.777222 705.841064,612.732910   C705.450684,623.466370 699.006775,628.936707 688.352478,629.601074   C679.078552,630.179443 672.651001,626.778687 666.903870,619.653748   C658.990662,609.843445 650.156311,600.776062 640.694702,591.837463   C641.729675,601.602539 642.764587,611.367615 643.800842,621.145386   C627.183899,622.132507 615.650574,612.739197 613.561218,597.179565   C612.475830,589.096680 611.116516,581.050354 609.851074,572.992188   C609.595398,571.364319 609.473511,569.657776 608.160156,568.382812   C606.313782,567.865417 605.556824,569.546387 604.370911,570.301270   C598.419312,574.089539 590.801208,573.068787 586.339966,567.607910   C584.780640,565.699158 583.397583,564.139099 580.627136,564.442993   C573.213440,565.255981 567.520081,562.700195 564.227295,554.749573   C561.600403,559.403931 559.542480,563.512451 557.067993,567.352539   C547.561584,582.105042 534.710022,591.987793 516.737427,593.654358   C504.373444,594.800842 493.382690,590.831970 483.780212,583.144470   C476.142883,577.030212 469.942688,569.685791 465.902893,560.658447   C465.234192,559.164124 464.378937,557.753235 463.605408,556.295410   C461.042725,556.820374 460.653442,559.139404 459.311249,560.486206   C456.250916,563.556946 452.565277,564.514771 448.380676,564.423950   C446.284637,564.378479 444.135956,564.005981 442.281769,565.799316   C433.034393,574.743164 430.095490,575.039795 419.114655,568.117249   C416.477966,572.694763 416.178009,577.828430 415.353516,582.768005   C414.203003,589.660828 413.352356,596.603333 412.231903,603.501587   C411.155914,610.125793 407.617004,614.820129 401.051056,616.923950   C395.389221,618.737976 389.722137,620.535583 383.180023,622.619995   C383.137482,611.658569 386.094391,601.880127 386.211639,591.338623   C382.667419,593.447937 380.466492,596.507446 378.015320,599.205383   C371.070435,606.849365 364.272827,614.627258 357.432678,622.366089   C351.315063,629.287476 339.593750,631.981506 331.001678,628.434570   C324.744904,625.851746 321.907471,620.641663 321.179260,614.425110   C320.727600,610.569885 319.537506,608.584595 315.598053,607.589172   C309.529724,606.055725 305.391541,601.985046 303.934814,595.756958   C303.374084,593.359558 302.160889,591.993408 300.019440,591.047424   C293.174133,588.023621 288.454834,582.803833 284.888458,576.349976   C282.876892,572.709717 280.508545,569.266541 278.501495,565.624023   C275.749023,560.628723 274.665863,555.245789 276.444916,549.727173   C277.651733,545.983704 276.866364,544.065735 272.842377,543.492859   C267.372040,542.713928 263.213562,539.706116 260.565857,534.965332   C258.795044,531.794556 257.121704,531.456482 253.810120,532.993713   C243.364212,537.842651 234.522675,536.306763 228.365173,529.113037   C222.548660,522.317688 221.866638,512.847412 226.659943,505.436371   C231.242340,498.351440 240.191696,495.006134 248.578995,497.255920   C249.382385,497.471436 250.262329,497.614014 250.940735,498.049164   C255.946487,501.260315 259.584778,500.997253 262.561157,495.004211   C264.480896,491.138672 268.900452,489.878571 273.069214,488.930908   C274.915314,488.511230 277.319183,488.511017 276.956055,485.165588  M558.616028,550.091370   C561.560364,542.260071 563.585999,534.192871 564.150574,525.845276   C565.668274,503.408081 560.983704,482.628876 545.687866,465.511566   C534.201538,452.657440 519.714539,447.246948 502.445618,451.915985   C490.370117,455.180817 481.767975,463.171295 475.125641,473.278015   C457.195923,500.559052 458.204834,540.086365 477.244781,566.621277   C495.577332,592.170471 527.320740,593.329224 547.442200,569.207031   C552.073669,563.654724 555.600586,557.470154 558.616028,550.091370  M377.001862,546.370056   C379.316040,546.109497 381.624023,545.746948 383.945465,545.606750   C392.037354,545.118042 399.755890,543.933899 404.098358,535.754761   C396.502747,533.701660 308.076538,532.516418 303.202454,534.392029   C303.707214,537.750977 303.705353,537.752319 305.164642,539.776855   C312.454681,549.891174 323.042938,552.130676 334.433990,551.193054   C348.360535,550.046692 362.222260,548.112183 377.001862,546.370056  M640.364746,534.844910   C634.534363,535.158997 628.629700,534.489075 621.457214,535.718750   C626.618896,539.072449 629.035339,543.852295 634.329590,544.495605   C653.991516,546.885132 673.634033,549.495605 693.344116,551.398926   C702.091675,552.243774 710.704895,550.454102 717.667053,544.379456   C720.845886,541.605957 723.976257,538.582336 724.498108,533.396729   C696.503845,532.584839 668.917847,533.949158 640.364746,534.844910  M328.705505,481.187744   C315.087555,481.941620 305.157776,488.409851 302.581787,498.850098   C336.547150,499.479218 370.294373,498.103821 405.624573,497.548340   C400.880615,493.765686 398.175323,489.277191 393.498688,488.610657   C372.284851,485.587341 351.148132,481.774353 328.705505,481.187744  M697.360352,481.110077   C676.678162,481.634430 656.417175,485.870422 635.921692,488.015411   C629.562317,488.680969 626.663147,493.319885 622.755615,497.208771   C656.597717,497.485321 690.187256,499.932800 723.917969,498.705780   C722.733521,489.365601 711.429382,481.288879 697.360352,481.110077  M376.097900,569.615356   C373.023254,572.422974 370.033539,575.330811 366.858673,578.020081   C355.436829,587.694946 344.938782,598.524048 332.054749,606.375305   C328.969147,608.255615 326.605194,610.077820 327.267242,614.143921   C327.929565,618.211853 329.629059,621.928345 333.700012,622.855957   C341.329376,624.594543 348.060974,624.360229 353.266449,618.241821   C364.701782,604.800964 376.814941,591.935913 388.701752,578.881714   C389.836609,577.635437 390.757935,575.774658 393.408997,576.189453   C393.823761,588.628540 390.198059,600.759888 390.210724,613.184204   C401.563171,612.419067 406.145569,608.699341 407.380890,598.338562   C409.198761,583.092102 411.372314,567.979370 417.129547,553.611084   C418.014282,551.402954 417.925537,549.387390 415.188232,548.211914   C414.642944,548.582520 414.037720,548.876343 413.580078,549.321777   C392.440338,569.896179 372.200470,591.341675 353.121246,613.819275   C348.186829,619.632629 342.913818,621.084106 336.118805,620.296692   C332.809357,619.913147 331.350128,617.849548 330.515503,614.807739   C329.718231,611.901917 331.174530,610.602722 333.300171,609.187256   C337.175537,606.606812 341.011139,603.932434 344.634460,601.013184   C368.648499,581.665405 390.467194,559.822510 413.954590,539.872009   C415.157471,538.850220 416.524963,537.671448 415.414948,534.539368   C402.233856,546.288635 389.423615,557.707336 376.097900,569.615356  M634.121765,575.958923   C636.460449,576.412598 637.685669,578.334778 639.105835,579.903076   C650.288879,592.252869 661.748291,604.375488 672.424744,617.151184   C677.880066,623.679138 684.348206,624.463623 691.666809,623.431458   C696.099915,622.806152 698.481934,619.503967 699.555603,615.341797   C700.654541,611.081848 698.640808,608.518982 694.941528,606.537659   C692.028625,604.977722 689.340698,602.918274 686.765381,600.819885   C662.987488,581.444519 640.784119,560.275330 617.694763,540.114502   C615.949036,538.590149 614.506165,536.439697 611.471252,536.218628   C611.681824,538.553345 612.979553,539.611877 614.194763,540.705566   C630.787231,555.639099 647.304626,570.657471 664.010315,585.463257   C673.598083,593.960571 682.934753,602.814697 694.069092,609.385315   C695.943176,610.491211 697.159851,611.937927 696.628845,614.282043   C696.052307,616.827026 694.918152,619.053467 692.360901,620.059631   C686.959778,622.184631 679.251953,619.908203 675.331543,615.491333   C655.753357,593.434143 636.100952,571.441895 615.165894,550.644653   C613.962402,549.449097 612.736877,547.308838 610.641113,548.374573   C608.659912,549.382019 608.946533,551.527832 609.668579,553.279114   C615.708252,567.929260 617.840637,583.408203 619.567810,598.991516   C620.403259,606.528809 624.776184,610.831116 632.101196,612.688416   C635.950684,613.664490 637.060547,612.419983 636.631531,608.859375   C636.113770,604.562805 635.438354,600.280090 635.082153,595.970581   C634.538208,589.389465 632.728271,582.907043 634.121765,575.958923  M611.731750,485.416656   C634.094482,464.641754 655.049438,442.491058 675.026245,419.450562   C679.491455,414.300598 684.328491,413.157257 690.341736,413.387512   C693.726013,413.517120 695.368713,415.553009 696.354004,418.457489   C697.408752,421.566650 696.173828,423.499268 693.359070,424.890228   C691.886108,425.618134 690.606262,426.759521 689.291138,427.781097   C662.422852,448.651550 637.674194,471.987000 612.020996,494.270447   C611.079834,495.087952 609.850159,496.022003 611.072510,497.604858   C613.243896,497.725128 614.312195,496.010376 615.629700,494.855896   C627.285583,484.642487 638.865112,474.341919 650.532471,464.141724   C665.078491,451.424927 679.132385,438.083679 695.323242,427.403229   C698.706909,425.171173 700.326355,422.779877 699.739807,418.840637   C699.142212,414.827393 697.038269,411.686646 693.097656,410.964600   C685.917480,409.648956 679.088989,409.522278 673.638733,416.274506   C662.541626,430.022827 650.109070,442.606049 638.037415,455.495392   C636.796692,456.820160 635.720032,458.877441 632.823914,458.019379   C633.787903,446.066559 636.342834,434.265228 636.817078,422.178619   C625.402832,423.201935 620.835510,427.745789 619.371948,439.044525   C617.552246,453.093201 615.734436,467.126831 609.811157,480.235748   C608.963562,482.111542 608.084534,484.478333 611.731750,485.416656  M364.213318,433.292084   C381.011536,451.203247 397.208801,469.730347 416.144623,485.643585   C418.352173,482.940918 417.365509,481.223114 416.791992,479.530457   C415.777618,476.536865 414.677551,473.572327 413.656921,470.580780   C409.595490,458.676270 409.155121,446.069672 406.544403,433.887817   C404.902527,426.226593 398.604492,421.935883 390.106384,422.482422   C390.216034,434.570648 393.618347,446.433228 393.672333,458.701569   C390.659424,458.403259 389.618347,456.528259 388.326660,455.106018   C376.797699,442.411743 365.021210,429.923950 353.948822,416.841156   C348.614929,410.538788 342.256256,409.778778 335.110504,410.569611   C330.829742,411.043365 328.372437,414.035278 327.391296,418.071442   C326.458984,421.906799 327.926819,424.570679 331.324982,426.849762   C343.514679,435.025146 354.485626,444.767609 365.527771,454.386017   C381.089294,467.941162 396.494659,481.675476 412.026581,495.264893   C413.150085,496.247894 414.074677,498.033752 416.454834,497.364105   C415.770966,492.999756 411.836853,491.499878 409.149445,489.190063   C383.657593,467.280029 359.386841,443.930389 332.315125,423.877472   C328.771912,421.252869 329.847260,415.764374 334.136627,413.996216   C339.104156,411.948486 347.313690,413.920074 350.951324,418.077698   C355.225891,422.963440 359.467560,427.878021 364.213318,433.292084  M667.441223,573.028870   C678.484375,581.054565 689.412415,589.235840 699.307495,598.672546   C702.403320,601.624939 705.355286,603.750122 709.887207,601.876526   C714.505310,599.967346 717.414185,596.844055 717.350281,591.754272   C717.310486,588.585388 718.776367,587.356506 721.549561,586.633667   C727.483826,585.086975 731.965454,581.448669 735.004578,576.202148   C737.425537,572.022766 740.030029,567.985413 742.703735,563.965698   C746.638428,558.050232 746.497864,550.909729 742.258179,545.818176   C739.835388,542.908630 736.754211,540.525879 733.849548,538.046326   C731.863647,536.351135 730.360352,536.927734 729.154358,539.275879   C722.009521,553.187683 709.661194,557.603027 695.080139,557.364014   C680.754272,557.129272 666.645386,554.526978 652.450195,552.871765   C648.299377,552.387756 644.156616,551.362976 638.669067,551.840820   C648.715149,559.242920 657.788696,565.928406 667.441223,573.028870  M741.629700,466.846375   C739.636047,463.581238 737.560913,460.362549 735.667236,457.040436   C732.538940,451.552277 728.034668,447.795441 721.911316,446.288483   C718.430603,445.431793 717.033142,443.884521 717.300049,440.059143   C717.623352,435.424133 714.183899,432.894684 710.341125,431.288330   C707.012817,429.896942 703.585815,429.413788 700.619202,432.405090   C686.588928,446.551819 670.091187,457.585938 654.109131,469.275116   C649.164978,472.891235 643.996277,476.267548 639.258911,481.147614   C656.376099,479.145996 672.700806,477.129852 689.051697,475.354736   C705.840271,473.532166 720.163879,477.568298 729.248291,493.204071   C730.211304,494.861572 731.172607,495.700531 733.234131,494.776642   C744.527649,489.715363 748.471375,477.599701 741.629700,466.846375  M286.027283,566.484314   C287.799103,569.492493 289.610840,572.478027 291.333801,575.513916   C294.251312,580.654663 298.343994,584.607788 304.085754,586.007202   C308.458771,587.072998 310.052032,589.225830 310.061127,593.595520   C310.070770,598.223206 313.369659,600.601013 317.374939,602.067078   C321.098419,603.429932 323.969055,602.283813 326.792480,599.531555   C331.313843,595.124268 336.108490,590.977234 340.980225,586.953369   C354.596436,575.707092 369.417236,566.076782 383.510834,555.468384   C384.871094,554.444519 386.554504,553.662476 387.440582,551.442871   C386.142517,551.442871 385.325806,551.357422 384.531799,551.455444   C369.685425,553.289062 354.865204,555.365845 339.991486,556.937500   C322.462585,558.789917 306.519958,556.462097 297.484680,538.490479   C297.184723,537.893860 296.819275,537.330139 296.627594,536.998718   C282.532959,542.332092 278.398468,553.731262 286.027283,566.484314  M305.085907,483.544098   C310.391846,478.911346 316.624664,476.492859 323.548767,475.466095   C334.438293,473.851349 345.096924,476.127747 355.808014,477.233887   C365.987152,478.285095 376.113312,479.849426 386.262787,481.188110   C386.426910,480.793640 386.591064,480.399170 386.755188,480.004700   C382.437164,476.752136 378.178406,473.417175 373.790497,470.261780   C357.846558,458.796387 341.863190,447.368103 327.648407,433.744843   C324.345245,430.579193 321.014404,429.430573 316.867584,431.102234   C312.723328,432.772797 309.716675,435.529053 310.025360,440.445343   C310.243347,443.916992 308.758484,445.553497 305.408508,446.265167   C299.178284,447.588654 294.759155,451.431793 291.644653,456.916504   C290.004303,459.805115 288.325684,462.683228 286.476837,465.440338   C278.649872,477.112335 280.744629,486.393890 292.821930,493.907959   C295.169067,495.368256 296.660522,495.386230 297.983643,492.770416   C299.647125,489.481750 301.907410,486.599915 305.085907,483.544098  M435.740326,529.616638   C436.590515,526.614197 432.337463,524.433655 434.446411,521.175354   C436.238342,518.406860 435.813843,515.451111 434.803680,512.516235   C434.326233,511.129120 433.811188,509.915619 434.406342,508.242218   C436.670105,501.877045 434.381195,495.206787 435.336182,488.597595   C435.767151,485.614838 435.074860,482.646912 436.892975,479.590393   C439.248901,475.629761 437.412109,470.844513 433.510681,468.984009   C429.582458,467.110718 425.338379,468.986877 423.358307,473.473206   C422.224091,476.043121 421.950897,478.587158 423.483215,481.127502   C424.385895,482.623993 424.565918,484.002258 423.670135,485.781555   C420.315857,492.444153 422.298187,499.919586 420.812256,506.908539   C420.575867,508.020264 421.699677,509.438660 420.860901,510.715912   C418.389343,514.479431 418.499969,518.220215 420.912323,521.937012   C421.625824,523.036316 421.548859,524.131775 421.158234,525.275696   C418.853821,532.023865 423.570190,538.672119 421.451782,545.420837   C421.410156,545.553406 421.484039,545.779968 421.583893,545.890625   C424.421844,549.037598 423.668121,552.256042 422.532959,555.985596   C421.056580,560.836121 425.097198,566.257690 429.723541,566.667786   C434.355469,567.078430 438.526184,563.578491 437.597809,558.629700   C436.530670,552.941711 436.057617,547.350403 435.571686,541.640137   C435.242462,537.771606 434.258881,534.168579 435.740326,529.616638  M608.336060,516.408569   C607.485291,512.031799 605.331665,508.188416 605.783813,503.169952   C606.111755,499.529053 604.040588,495.488129 605.375610,491.347839   C605.705872,490.323761 605.037537,488.544983 604.227356,487.668457   C601.956848,485.211975 602.176208,483.005432 603.355103,480.008698   C604.952148,475.949036 603.856384,471.996429 600.052612,469.442932   C597.289490,467.587952 594.315002,467.745331 591.813354,470.148193   C588.442810,473.385803 588.365601,477.152863 590.441223,481.095276   C591.285522,482.698883 592.460083,484.067352 591.708130,486.162994   C589.315918,492.830261 593.558533,499.623840 591.465820,506.346710   C591.306885,506.857391 591.965088,507.571838 592.049683,508.216949   C592.730164,513.408020 590.291565,518.891113 593.512756,523.873657   C593.646423,524.080444 593.046875,524.707764 592.878052,525.171631   C590.338074,532.149231 592.931396,539.601440 590.913147,546.632507   C590.875549,546.763733 590.982727,546.960876 591.067688,547.099426   C592.563354,549.536560 591.906189,551.671021 590.622375,554.070740   C588.568542,557.909729 588.497559,561.833435 592.114319,564.966919   C595.085632,567.541138 598.439636,567.282654 601.259705,564.952332   C604.670532,562.133972 605.620239,558.374817 603.695923,554.174377   C603.005066,552.666382 601.968628,551.210083 603.202576,549.527771   C607.927734,543.085449 604.651062,535.363892 606.279358,528.299377   C607.070679,524.866150 606.935242,520.774170 608.336060,516.408569  M285.624786,500.579651   C280.860352,512.222168 280.483704,523.596008 287.653961,535.825378   C295.793213,525.984741 306.295074,526.653015 316.693420,526.871277   C331.847137,527.189453 347.001221,527.496643 362.156311,527.735596   C364.243347,527.768494 366.482422,528.401489 368.704437,526.715149   C368.125366,521.263123 366.784119,515.598511 368.058228,510.047821   C369.190735,505.114166 367.068604,504.245178 362.878662,504.407684   C344.899658,505.105011 326.917389,505.607361 308.917175,505.473053   C302.178772,505.422729 296.029114,504.181976 290.804779,499.696136   C289.095367,498.228363 287.413788,497.332001 285.624786,500.579651  M724.764954,527.299011   C728.745728,528.075073 732.433228,529.475281 735.517578,532.224976   C738.609558,534.981506 740.732544,534.300842 742.168213,530.447693   C745.749695,520.835571 745.655823,511.244385 742.204895,501.646423   C740.900024,498.017273 738.889709,497.492371 735.913208,500.133911   C731.473511,504.074036 726.199341,505.495972 720.260498,505.478912   C701.777710,505.425781 683.298340,505.383972 664.828064,504.580078   C662.722778,504.488464 660.529785,504.092560 658.198242,505.377197   C658.411011,510.404816 659.745300,515.452209 659.126282,520.611267   C658.256470,527.860840 658.340332,527.794312 665.487000,527.794434   C684.959412,527.794678 704.413025,526.079834 724.764954,527.299011  M569.955444,492.555206   C569.954224,502.048004 569.934570,511.540802 569.956848,521.033569   C569.979858,530.858826 569.891052,540.687805 570.142883,550.507751   C570.311340,557.078369 576.107056,560.628601 582.015137,558.012573   C586.325623,556.103943 586.232849,551.792603 586.540710,548.153992   C587.255493,539.705261 587.703125,531.214600 587.787720,522.736267   C587.917236,509.761444 588.035767,496.764191 585.882141,483.889587   C585.122070,479.345642 582.438721,477.118652 577.891663,477.539886   C573.398865,477.956085 570.406128,480.199463 570.171509,485.088470   C570.067810,487.250183 570.041992,489.415619 569.955444,492.555206  M457.134003,494.517151   C457.041901,491.358002 456.999420,488.196411 456.845947,485.040253   C456.621521,480.423615 453.904083,478.079956 449.526855,477.774231   C445.289917,477.478363 441.897095,478.845032 441.240326,483.685303   C440.659607,487.964417 440.030212,492.250519 439.752411,496.554840   C438.550781,515.172729 438.535492,533.783691 441.334686,552.274475   C442.235779,558.226990 445.628296,559.907776 451.415497,558.207642   C455.895142,556.891724 456.898499,553.610474 457.076111,549.385010   C457.830994,531.423157 457.486206,513.466248 457.134003,494.517151  M374.470093,519.061279   C376.524139,528.609497 376.524139,528.610840 386.427673,528.714233   C393.075928,528.783630 399.727173,528.750488 406.371399,528.951660   C410.490570,529.076294 412.297882,527.443665 411.555481,523.284912   C410.701599,518.501770 410.502380,513.738770 411.538330,508.927643   C412.430634,504.783783 410.512207,503.151154 406.360474,503.365753   C399.225464,503.734497 392.079620,503.922852 384.936035,504.088531   C376.581635,504.282349 375.237610,505.451599 374.484894,513.719666   C374.349762,515.204041 374.436279,516.708557 374.470093,519.061279  M645.082031,528.695068   C649.115356,529.190125 650.844055,526.893738 651.489990,523.352051   C652.335083,518.718994 652.404114,514.058105 651.468323,509.446503   C650.868591,506.491119 649.511719,504.217529 645.865662,504.221039   C637.209045,504.229370 628.552368,504.071289 619.895630,503.987579   C616.130066,503.951141 614.745239,505.934021 615.553711,509.441132   C616.621460,514.072693 616.616943,518.703186 615.647888,523.304443   C614.825012,527.211792 616.154053,528.963013 620.194275,528.895203   C628.184387,528.760986 636.176758,528.763184 645.082031,528.695068  M776.237854,504.744965   C775.502625,505.127197 774.759827,505.495483 774.033569,505.894043   C770.085205,508.061005 769.066833,523.570129 772.872864,525.946655   C775.230652,527.418884 777.876282,528.638306 780.557800,529.340942   C786.347351,530.857971 792.489502,528.089050 795.549561,523.008118   C798.726013,517.734009 798.043396,511.827698 793.697327,506.980530   C789.600342,502.411102 784.091187,501.564575 776.237854,504.744965  M249.012726,528.719727   C251.960251,526.924927 256.773468,526.737549 256.433502,521.910400   C256.174225,518.228943 256.203217,514.638855 256.599335,511.003632   C256.763702,509.495087 256.753357,507.887665 255.335434,506.923309   C250.554047,503.671448 245.516754,501.179077 239.503586,503.012268   C232.241501,505.226227 228.003235,512.494202 229.864777,519.338440   C232.094086,527.534973 238.974976,531.136719 249.012726,528.719727  M747.956665,498.732727   C757.436829,512.970459 754.085205,526.443359 744.800842,539.562744   C753.020813,536.104431 758.328674,522.602051 756.374268,511.305573   C755.092346,503.895935 752.536499,497.110596 745.205566,492.293976   C744.739380,495.685181 746.768677,496.595642 747.956665,498.732727  M270.466370,512.068542   C270.082123,526.371948 275.301697,538.857300 282.876801,539.550659   C270.236359,524.083557 269.984497,508.623505 282.014465,492.894043   C274.391327,496.979950 272.217194,503.930573 270.466370,512.068542  M269.636230,499.114807   C269.669922,498.427216 270.581512,497.168121 269.109344,497.319153   C267.568024,497.477295 266.706268,499.003601 265.862274,500.232300   C260.063904,508.673706 260.159729,524.200317 266.076447,532.481018   C267.050659,533.844604 268.071198,535.286743 270.792084,535.678894   C263.524048,523.419983 262.062012,511.627258 269.636230,499.114807  M757.690613,497.331116   C757.000366,498.806183 758.141968,499.879974 758.689453,500.940735   C764.156189,511.533051 764.171082,521.975952 758.172363,532.365417   C757.633850,533.298096 756.608459,534.172913 757.235291,535.502869   C769.197998,528.620117 767.667297,503.260437 757.690613,497.331116  z" fill="#d9bf77" opacity="1.000000" stroke="none"/>
<path d=" M495.308411,460.107269   C514.428833,450.188690 535.231689,456.570984 548.047180,475.008087   C565.478333,500.085815 565.386963,536.792847 547.931885,561.655640   C529.522400,587.877930 498.527588,588.284729 479.418732,562.554993   C460.011261,536.423218 461.654175,494.530640 483.031097,470.018219   C486.461578,466.084564 490.416779,462.818268 495.308411,460.107269  M500.099060,493.594055   C497.713593,498.861542 499.555786,504.396454 499.133484,509.793060   C498.874969,513.096924 498.896362,516.831116 502.707916,518.346985   C506.798492,519.973938 510.203400,517.903320 513.052490,515.157837   C517.781555,510.600677 518.678772,501.789978 514.451111,499.378326   C510.103271,496.898163 505.273468,495.262878 500.099060,493.594055  M507.515717,485.532684   C508.988464,490.905945 519.014832,496.702454 524.056335,495.113892   C525.703613,494.594849 526.481018,493.372162 526.611267,491.793762   C526.924622,487.996613 527.297668,484.238831 528.467712,480.564453   C529.085938,478.622894 528.163757,477.027161 526.264771,476.090057   C520.232422,473.113129 509.260254,478.226807 507.515717,485.532684  z" fill="#d9bf77" opacity="1.000000" stroke="none"/>
<path d=" M396.178223,584.404175   C396.422089,582.311829 396.777649,580.649597 396.693451,579.009888   C396.113159,567.706909 404.382782,562.293213 411.264343,556.032471   C413.088165,556.802612 412.602814,557.953186 412.303467,558.777954   C407.676544,571.526855 406.131500,584.885986 404.288300,598.201904   C403.221588,605.908142 400.813110,608.274658 393.769928,608.887085   C393.305878,600.721191 395.687622,592.854004 396.178223,584.404175  z" fill="#d9bf77" opacity="1.000000" stroke="none"/>
<path d=" M629.290466,572.211426   C630.681274,584.604492 632.041870,596.574890 633.415710,608.661255   C626.958313,608.332031 623.934387,605.440186 622.861633,598.919922   C622.026611,593.844849 621.470337,588.724548 620.749695,583.630066   C619.583374,575.384338 617.742981,567.306641 614.897888,559.457092   C614.383911,558.039246 612.978210,556.574402 614.839905,553.983643   C619.523254,560.267700 627.026306,563.697388 629.290466,572.211426  z" fill="#d9bf77" opacity="1.000000" stroke="none"/>
<path d=" M629.007996,462.417419   C626.239136,469.627502 619.783813,472.919159 615.682495,478.057770   C614.173706,477.402771 614.218994,476.714508 614.453064,476.108185   C619.279602,463.604736 620.807068,450.403137 622.819946,437.289246   C623.943115,429.971497 626.481750,427.446808 633.243774,426.630920   C633.014160,438.646515 629.822144,450.209106 629.007996,462.417419  z" fill="#d9bf77" opacity="1.000000" stroke="none"/>
<path d=" M406.238281,450.965759   C407.409393,460.412476 410.484955,468.987885 412.137817,478.094757   C406.243805,472.162384 397.636932,468.600006 396.927155,458.642914   C396.174469,448.083954 393.772125,437.682831 393.454620,426.740143   C399.011475,426.152679 401.730865,428.988770 403.246368,433.400818   C405.149231,438.940521 404.943176,444.866211 406.238281,450.965759  z" fill="#d9bf77" opacity="1.000000" stroke="none"/>
<path d=" M667.667725,569.377563   C662.009338,565.349365 656.650757,561.519104 651.368774,557.743530   C652.487976,555.452271 653.898071,556.105225 655.140686,556.248474   C667.204773,557.639771 679.236450,559.475647 691.337708,560.339722   C706.483276,561.421143 720.300598,558.352661 729.369019,544.488220   C731.167419,541.738647 732.878174,541.629822 735.445251,543.583862   C743.079468,549.395264 744.247131,556.580811 738.658142,564.446167   C737.117859,566.613708 735.415771,568.735779 734.291504,571.116516   C730.830322,578.445801 725.392395,583.079773 717.278992,584.215454   C714.177917,584.649536 713.495178,586.265747 714.008606,589.089966   C714.723572,593.022705 713.805115,596.301636 709.939941,598.370728   C705.907349,600.529358 703.430542,598.166565 700.782715,595.683594   C690.555237,586.092712 679.482666,577.553406 667.667725,569.377563  z" fill="#d9bf77" opacity="1.000000" stroke="none"/>
<path d=" M719.793518,478.173401   C708.024109,470.594421 695.317139,471.621368 682.691711,472.800049   C673.761658,473.633759 664.888550,475.073517 655.985413,476.206329   C654.690857,476.371063 653.345459,476.508606 652.080627,475.718018   C652.184265,473.419708 654.167480,472.807953 655.567810,471.837006   C671.585388,460.730133 687.366577,449.321075 701.512451,435.836517   C704.002625,433.462738 706.631226,432.928955 709.711243,434.164734   C712.860413,435.428223 714.636292,437.940674 714.254456,441.184357   C713.655518,446.272491 715.836731,448.259399 720.613403,449.224487   C726.054688,450.323883 730.093689,453.747406 732.798035,458.756317   C734.690186,462.260895 736.876099,465.615875 739.065125,468.949402   C744.102356,476.619873 743.002563,483.245300 735.813232,489.094635   C733.360046,491.090576 731.556763,491.227966 729.724060,488.378723   C727.182922,484.428223 724.056335,480.984619 719.793518,478.173401  z" fill="#d9bf77" opacity="1.000000" stroke="none"/>
<path d=" M345.582703,559.515381   C355.557678,558.312927 365.076141,557.156677 374.657104,555.992798   C375.174957,559.105164 372.953857,559.523621 371.632019,560.474548   C358.127930,570.190063 344.481293,579.715698 331.891052,590.632874   C329.630707,592.592834 327.394958,594.593323 325.286743,596.713318   C323.127960,598.884094 320.848694,600.281677 317.753204,598.827393   C314.851868,597.464294 312.319061,595.290100 312.900421,591.987244   C313.986053,585.818909 311.330078,583.684387 305.637970,583.187439   C302.659790,582.927490 299.926239,581.165283 297.961365,578.835876   C292.793304,572.709229 288.756775,565.771118 285.601105,558.488159   C282.947571,552.364075 286.660553,546.210938 294.547668,541.713989   C295.748901,541.697754 296.277740,542.588989 296.792664,543.437195   C305.774841,558.232544 319.932770,561.133301 335.677734,560.334473   C338.832184,560.174377 341.976990,559.824158 345.582703,559.515381  z" fill="#d9bf77" opacity="1.000000" stroke="none"/>
<path d=" M312.520630,445.667969   C312.364624,441.987762 311.796448,438.536072 314.786591,436.039764   C317.677277,433.626465 321.117584,432.166412 324.249573,435.056213   C339.689514,449.302216 356.557922,461.691895 373.702118,473.744080   C374.190277,474.087219 374.471527,474.724792 375.115326,475.577484   C370.459137,477.218109 366.347412,475.294556 362.249542,474.856934   C350.355743,473.586792 338.518341,471.682526 326.496887,472.236847   C314.506012,472.789734 304.445709,477.145752 297.906616,487.646240   C295.605103,491.341980 293.715393,490.868073 290.874512,488.462128   C283.910370,482.564301 282.939941,476.455322 288.023712,468.740082   C289.395477,466.658173 291.087646,464.724670 292.105103,462.483459   C295.561584,454.869476 300.751373,449.564270 309.387177,448.323212   C310.735443,448.129456 311.885956,447.406769 312.520630,445.667969  z" fill="#d9bf77" opacity="1.000000" stroke="none"/>
<path d=" M431.249146,520.335205   C427.686310,523.289307 424.680359,522.483459 422.540771,519.311768   C420.752106,516.660339 421.326752,513.821045 424.148529,512.016968   C426.877197,510.272339 429.587738,510.691895 431.633850,513.251343   C433.386993,515.444336 433.282959,517.812439 431.249146,520.335205  z" fill="#d9bf77" opacity="1.000000" stroke="none"/>
<path d=" M426.584351,553.554443   C430.956512,551.506714 434.414978,553.020752 435.017120,557.006042   C435.523499,560.357300 433.763428,562.507080 430.660736,563.297668   C427.208832,564.177246 426.619507,561.289001 425.656097,559.002563   C424.867645,557.131226 425.147949,555.431641 426.584351,553.554443  z" fill="#d9bf77" opacity="1.000000" stroke="none"/>
<path d=" M428.749451,534.917603   C424.722839,534.667236 422.214172,532.946472 422.690491,529.009460   C423.037720,526.139954 425.355133,524.914001 428.171997,525.014038   C430.757324,525.105835 432.740356,526.328247 433.236969,528.973877   C433.838898,532.180725 432.003296,533.942627 428.749451,534.917603  z" fill="#d9bf77" opacity="1.000000" stroke="none"/>
<path d=" M434.511963,473.832581   C435.742920,477.034058 435.102661,479.439606 432.646545,481.240631   C431.002472,482.446259 429.198090,482.538879 427.546997,481.272919   C424.804565,479.170166 423.642914,476.373566 425.958221,473.512665   C428.450134,470.433533 431.515717,469.964569 434.511963,473.832581  z" fill="#d9bf77" opacity="1.000000" stroke="none"/>
<path d=" M433.223541,540.820496   C434.212097,544.967957 433.482666,547.955444 429.002991,548.366821   C426.434235,548.602661 424.546295,547.192566 423.694641,544.695312   C422.896759,542.355652 423.559082,540.303162 425.627319,539.049133   C428.415405,537.358704 431.019135,537.760620 433.223541,540.820496  z" fill="#d9bf77" opacity="1.000000" stroke="none"/>
<path d=" M429.038757,495.262878   C426.060577,495.014252 424.248596,493.809479 423.815826,491.156189   C423.481140,489.104065 424.705383,487.738159 426.287628,486.695801   C428.157959,485.463593 430.041687,485.702179 431.808960,486.928070   C433.418335,488.044464 434.240387,489.638977 433.928680,491.592438   C433.534332,494.063782 431.937836,495.248474 429.038757,495.262878  z" fill="#d9bf77" opacity="1.000000" stroke="none"/>
<path d=" M427.311646,507.937988   C424.331421,507.078827 422.206909,505.866638 423.243561,502.658020   C424.006317,500.297058 425.662964,498.558411 428.336761,498.919037   C430.977905,499.275208 433.065887,500.832458 433.040649,503.728394   C433.011719,507.044098 430.745453,508.158783 427.311646,507.937988  z" fill="#d9bf77" opacity="1.000000" stroke="none"/>
<path d=" M599.994324,510.811646   C603.530029,511.590027 606.153870,513.038696 605.773987,516.764587   C605.504700,519.405640 603.842712,521.333801 601.118164,521.970886   C598.342163,522.619934 596.234375,521.463989 594.804871,519.136841   C592.761902,515.810913 594.481506,512.884460 599.994324,510.811646  z" fill="#d9bf77" opacity="1.000000" stroke="none"/>
<path d=" M601.941589,559.579712   C600.588013,562.894226 598.623535,564.820618 595.269836,563.488831   C592.433289,562.362427 591.370605,559.901855 592.041687,556.956848   C592.642151,554.321777 594.221924,552.179321 597.161743,552.424072   C601.133728,552.754700 602.248657,555.605469 601.941589,559.579712  z" fill="#d9bf77" opacity="1.000000" stroke="none"/>
<path d=" M592.936279,480.187439   C590.905701,476.945282 590.903687,474.157562 593.814392,471.956451   C595.870361,470.401764 597.958435,471.115936 599.747375,472.615662   C601.953552,474.465179 602.518860,476.904083 601.046326,479.328461   C599.011230,482.679260 596.260437,483.229523 592.936279,480.187439  z" fill="#d9bf77" opacity="1.000000" stroke="none"/>
<path d=" M603.557495,532.197083   C600.952393,535.602356 598.153381,535.982849 595.292847,533.393372   C593.109070,531.416565 593.212280,528.954346 595.058594,526.770935   C597.073669,524.388000 599.612061,524.333252 602.190430,525.826233   C604.684631,527.270447 604.656067,529.474121 603.557495,532.197083  z" fill="#d9bf77" opacity="1.000000" stroke="none"/>
<path d=" M595.889343,547.973816   C592.350281,543.899475 592.633301,540.322754 596.342346,539.053650   C598.500061,538.315369 600.623901,538.486023 602.296997,540.336182   C603.697449,541.884888 603.811279,543.707764 602.934326,545.442627   C601.533020,548.214661 599.174316,549.018555 595.889343,547.973816  z" fill="#d9bf77" opacity="1.000000" stroke="none"/>
<path d=" M599.443176,486.301086   C602.206299,487.613403 603.107971,489.703705 602.800049,492.148987   C602.582642,493.875244 601.301331,495.080200 599.463623,495.340057   C596.313477,495.785461 593.564453,495.019653 593.276062,491.431519   C592.966980,487.587158 595.060974,485.618225 599.443176,486.301086  z" fill="#d9bf77" opacity="1.000000" stroke="none"/>
<path d=" M603.522217,505.531097   C602.659180,506.910034 601.612854,507.403625 600.465881,507.696899   C597.830322,508.370667 595.287354,508.230164 594.087341,505.415985   C592.899170,502.629517 594.299133,500.491394 596.853088,499.329742   C599.670288,498.048401 601.623596,499.586182 603.120911,501.860535   C603.781006,502.863281 604.067200,503.982300 603.522217,505.531097  z" fill="#d9bf77" opacity="1.000000" stroke="none"/>
<path d=" M362.571350,524.510010   C346.700378,524.393921 331.240753,524.163452 315.780304,524.045410   C306.361176,523.973450 296.679535,522.735474 289.105957,530.085388   C284.083191,523.436584 284.064453,509.979889 288.776581,502.589111   C302.029419,511.886871 317.082184,508.170166 331.654053,508.163910   C341.294678,508.159760 350.938538,507.840729 360.573761,507.474213   C364.062103,507.341522 365.408386,508.487854 365.010620,512.070190   C364.701416,514.854614 364.947662,517.703613 364.991364,520.523254   C365.017456,522.208191 365.264008,523.960571 362.571350,524.510010  z" fill="#d9bf77" opacity="1.000000" stroke="none"/>
<path d=" M728.743652,524.989380   C722.938354,523.687012 717.429688,523.914917 711.954468,523.991272   C696.983765,524.200134 682.013367,524.501831 667.046936,524.914001   C663.222595,525.019348 661.338440,524.018127 662.188782,519.778015   C662.571899,517.867310 662.383240,515.806641 662.232788,513.830872   C661.791260,508.033356 662.083862,507.587158 668.110291,507.690643   C682.584717,507.939148 697.056885,508.319611 711.531067,508.586273   C720.836670,508.757721 730.274170,509.429657 737.796082,502.451904   C742.133789,507.830444 743.079407,522.254456 739.852051,527.632629   C738.752075,529.465454 737.517334,529.672363 735.725098,528.619507   C733.582886,527.360962 731.330872,526.289246 728.743652,524.989380  z" fill="#d9bf77" opacity="1.000000" stroke="none"/>
<path d=" M572.859375,502.001648   C572.896484,496.682770 572.890076,491.862457 572.990295,487.044373   C573.065857,483.409302 574.645325,480.966888 578.598267,480.802460   C582.764343,480.629150 582.852905,483.931061 583.139160,486.640106   C585.327881,507.357819 585.406616,528.093872 583.109375,548.805542   C582.823792,551.380554 583.047791,554.771240 579.082031,555.322937   C575.123657,555.873657 573.096191,554.009277 573.018738,548.872437   C572.838440,536.907898 572.913208,524.939514 572.884888,512.972656   C572.876648,509.482178 572.869324,505.991669 572.859375,502.001648  z" fill="#d9bf77" opacity="1.000000" stroke="none"/>
<path d=" M441.885559,510.065308   C442.507812,501.946411 443.047302,494.309998 443.775085,486.691559   C444.071960,483.584198 444.884796,480.611145 449.048889,480.833923   C452.957214,481.042999 454.066803,483.604950 454.068573,486.962891   C454.079681,507.783844 454.056396,528.604797 454.055359,549.425781   C454.055176,552.897217 452.843323,555.121460 448.936646,555.377319   C444.799530,555.648315 444.350861,552.718933 443.970184,549.917358   C442.195831,536.858459 441.613525,523.727051 441.885559,510.065308  z" fill="#d9bf77" opacity="1.000000" stroke="none"/>
<path d=" M398.947906,526.130127   C393.474091,525.999695 388.493469,525.784851 383.513397,525.798035   C380.005798,525.807373 378.363342,524.036255 377.960602,520.776001   C377.818359,519.624390 377.702881,518.464905 377.661407,517.305908   C377.333191,508.132874 378.482788,506.907410 387.455170,506.841644   C392.769287,506.802704 398.084961,506.846344 403.397186,506.728577   C407.053558,506.647491 408.560028,508.263519 408.170013,511.894867   C407.975830,513.703003 408.025574,515.544312 408.059143,517.368835   C408.223907,526.328491 408.235046,526.328308 398.947906,526.130127  z" fill="#d9bf77" opacity="1.000000" stroke="none"/>
<path d=" M618.794922,523.980103   C619.225891,519.423645 619.649902,515.322021 618.858398,511.180511   C618.295898,508.237793 619.678589,506.818878 622.656006,506.844513   C629.785767,506.905884 636.915771,506.939392 644.045715,506.987274   C646.798950,507.005737 648.358276,508.428772 648.769043,511.108185   C648.994385,512.578491 649.229126,514.060974 649.271851,515.543396   C649.547852,525.108948 648.640503,526.018066 639.021912,526.083557   C634.047119,526.117371 629.071716,526.237976 624.098022,526.185364   C622.220642,526.165527 619.996338,526.792236 618.794922,523.980103  z" fill="#d9bf77" opacity="1.000000" stroke="none"/>
<path d=" M787.588135,525.952759   C786.085510,526.263489 784.931641,526.598694 783.794861,526.548523   C779.500122,526.358765 775.186829,525.507751 773.912903,520.758789   C771.871338,513.148376 773.695618,509.078308 779.350525,506.739624   C784.474243,504.620575 789.415283,506.139679 792.301941,510.721405   C795.244446,515.391785 794.573669,520.345581 790.415955,524.152344   C789.694275,524.813049 788.773621,525.256470 787.588135,525.952759  z" fill="#d9bf77" opacity="1.000000" stroke="none"/>
<path d=" M235.065582,522.704712   C228.875717,513.813110 236.633896,504.881500 243.899963,505.610809   C247.646378,505.986786 251.252609,506.944916 253.013947,510.611633   C254.673248,514.065918 253.194580,522.340332 250.909912,524.093079   C247.032623,527.067749 242.800201,527.716614 238.360870,525.495667   C237.213272,524.921570 236.310883,523.857300 235.065582,522.704712  z" fill="#d9bf77" opacity="1.000000" stroke="none"/>
</svg>